Dactyl Sans Bold.sfdir
StartChar: !
Encoding: 33 33 0
Width: 226
InSpiro: 1
        Flags: H
        LayerCount: 2
        Back
        SplineSet
60 664 m 0
64 664 l 0
64 240 l 0
60 240 l 0
60 664 l 0
Z
62 55 m 0
63 54 65 55 66 57 c 0
68 58 69 60 69 62 c 0
68 63 68 65 66 66 c 0
65 68 63 68 62 69 c 0
60 69 58 68 57 66 c 0
55 65 55 63 55 62 c 0
54 60 55 58 57 57 c 0
58 55 60 54 62 55 c 0
Z
Spiro
60 664 v
64 664 v
64 240 v
60 240 v
62 55 c
69 62 c
62 69 c
55 62 c
0 0 z
EndSpiro
EndSplineSet
        Fore
        SplineSet
-2 720 m 0
122 720 l 0
122 180 l 0
-2 180 l 0
-2 720 l 0
Z
60 -5 m 0
77 -5 93 2 105 14 c 0
117 26 125 42 125 60 c 0
124 77 117 93 105 105 c 0
93 117 77 124 60 125 c 0
42 125 26 117 14 105 c 0
2 93 -4 77 -5 60 c 0
-5 42 2 26 14 14 c 0
26 2 42 -5 60 -5 c 0
Z
Spiro
-2 720 v
122 720 v
122 180 v
-2 180 v
60 -5 c
125 60 c
60 125 c
-5 60 c
0 0 z
EndSpiro
EndSplineSet
        EndChar
StartChar: #
Encoding: 35 35 0
Width: 526
InSpiro: 1
        Flags: H
        LayerCount: 2
        Back
        SplineSet
60 460 m 0
60 464 l 0
364 464 l 0
364 460 l 0
60 460 l 0
Z
60 260 m 0
60 264 l 0
364 264 l 0
364 260 l 0
60 260 l 0
Z
284 664 m 0
289 664 l 0
289 60 l 0
284 60 l 0
284 664 l 0
Z
134 664 m 0
139 664 l 0
139 60 l 0
134 60 l 0
134 664 l 0
Z
Spiro
60 460 v
60 464 v
364 464 v
364 460 v
60 260 v
60 264 v
364 264 v
364 260 v
284 664 v
289 664 v
289 60 v
284 60 v
134 664 v
139 664 v
139 60 v
134 60 v
0 0 z
EndSpiro
EndSplineSet
        Fore
        SplineSet
-2 400 m 0
-2 520 l 0
422 520 l 0
422 400 l 0
-2 400 l 0
Z
-2 200 m 0
-2 320 l 0
422 320 l 0
422 200 l 0
-2 200 l 0
Z
222 720 m 0
347 720 l 0
347 0 l 0
222 0 l 0
222 720 l 0
Z
72 720 m 0
197 720 l 0
197 0 l 0
72 0 l 0
72 720 l 0
Z
Spiro
-2 400 v
-2 520 v
422 520 v
422 400 v
-2 200 v
-2 320 v
422 320 v
422 200 v
222 720 v
347 720 v
347 0 v
222 0 v
72 720 v
197 720 v
197 0 v
72 0 v
0 0 z
EndSpiro
EndSplineSet
        EndChar
StartChar: $
Encoding: 36 36 17
Width: 526
InSpiro: 1
Flags: H
LayerCount: 2
Back
SplineSet
364 560 m 0
 359 560 l 0
 328 613 272 651 211 660 c 0
 190 662 169 662 150 656 c 0
 130 651 112 640 98 626 c 0
 83 611 74 592 69 572 c 0
 64 553 63 532 64 512 c 0
 63 489 64 466 72 445 c 0
 80 424 94 405 113 393 c 0
 141 372 178 367 213 363 c 0
 247 358 284 353 313 333 c 0
 331 319 346 300 354 278 c 0
 363 257 365 233 364 211 c 0
 360 172 343 134 316 106 c 0
 288 79 250 61 212 60 c 0
 179 58 145 67 118 86 c 0
 91 105 70 132 60 164 c 0
 64 164 l 0
 74 133 94 106 120 88 c 0
 146 70 179 61 211 63 c 0
 249 64 286 81 313 109 c 0
 339 136 356 173 359 212 c 0
 360 234 357 256 349 277 c 0
 341 298 327 316 310 330 c 0
 281 350 245 356 210 360 c 0
 175 365 138 370 110 390 c 0
 91 403 76 422 68 443 c 0
 60 465 59 488 60 512 c 0
 60 533 60 554 65 574 c 0
 70 594 80 614 95 629 c 0
 110 644 129 654 149 660 c 0
 169 665 191 665 212 663 c 0
 274 654 332 615 364 560 c 0
  Spiro
    364 560 v
    359 560 v
    211 660 c
    64 512 a
    64 492 h
    113 393 c
    313 333 c
    364 211 c
    212 60 c
    60 164 v
    64 164 v
    211 63 c
    359 212 c
    310 330 c
    110 390 c
    60 512 a
    60 532 h
    212 663 c
    0 0 z
  EndSpiro
209 666 m 0
 214 666 l 0
 214 58 l 0
 209 58 l 0
 209 666 l 0
  Spiro
    209 666 v
    214 666 v
    214 58 v
    209 58 v
    0 0 z
  EndSpiro
EndSplineSet
Fore
SplineSet
422 500 m 0
 297 500 l 0
 297 525 287 551 269 569 c 0
 251 587 226 599 201 600 c 0
 189 600 178 598 167 594 c 0
 156 590 147 583 140 574 c 0
 132 565 128 555 125 544 c 0
 123 532 122 521 123 510 c 0
 123 497 123 484 126 472 c 0
 130 459 136 448 145 439 c 0
 156 425 172 416 189 410 c 0
 206 404 224 401 241 399 c 0
 277 395 314 394 346 378 c 0
 375 362 398 335 411 304 c 0
 423 272 426 238 422 205 c 0
 415 152 391 101 354 64 c 0
 317 26 265 2 213 0 c 0
 155 -2 96 20 55 61 c 0
 15 102 -6 162 -2 220 c 0
 122 220 l 0
 117 195 124 168 140 149 c 0
 156 130 180 118 206 119 c 0
 230 119 254 130 270 147 c 0
 287 165 296 189 297 214 c 0
 297 238 289 263 273 281 c 0
 261 293 245 302 228 308 c 0
 212 314 194 317 177 319 c 0
 142 323 105 324 74 340 c 0
 44 354 21 381 9 412 c 0
 -1 443 -3 477 -3 510 c 0
 -2 540 -2 570 5 600 c 0
 12 629 27 657 49 678 c 0
 70 699 98 714 127 720 c 0
 157 726 188 725 218 719 c 0
 269 707 317 679 353 641 c 0
 390 602 414 552 422 500 c 0
  Spiro
    422 500 v
    297 500 v
    201 600 c
    123 510 a
    123 490 h
    145 439 c
    346 378 c
    422 205 c
    213 0 c
    -2 220 v
    122 220 v
    206 119 c
    297 214 c
    273 281 c
    74 340 c
    -3 510 a
    -3 530 h
    218 719 c
    0 0 z
  EndSpiro
147 780 m 0
 272 780 l 0
 272 -60 l 0
 147 -60 l 0
 147 780 l 0
  Spiro
    147 780 v
    272 780 v
    272 -60 v
    147 -60 v
    0 0 z
  EndSpiro
EndSplineSet
EndChar
StartChar: %
Encoding: 37 37 0
Width: 526
InSpiro: 1
        Flags: H
        LayerCount: 2
        Back
        SplineSet
359 664 m 0
364 664 l 0
64 60 l 0
60 60 l 0
359 664 l 0
Z
60 540 m 0
51 551 46 565 44 579 c 0
43 593 46 608 52 620 c 0
59 633 69 644 81 651 c 0
93 659 107 663 122 663 c 0
136 662 150 658 162 651 c 0
174 643 184 632 190 620 c 0
196 607 199 593 198 579 c 0
196 565 191 551 183 540 c 0
168 520 145 509 121 509 c 0
97 509 74 520 60 540 c 0
Z
180 543 m 0
188 553 193 566 194 580 c 0
195 593 192 607 186 619 c 0
180 631 171 642 159 649 c 0
148 656 134 660 121 660 c 0
107 659 94 656 82 648 c 0
71 641 61 631 55 619 c 0
50 607 47 593 48 580 c 0
49 566 54 553 63 543 c 0
76 524 98 513 121 513 c 0
144 513 166 524 180 543 c 0
Z
363 183 m 0
371 171 376 157 378 143 c 0
379 129 376 114 370 102 c 0
363 89 353 78 341 71 c 0
329 63 315 59 301 60 c 0
286 60 272 64 260 71 c 0
248 79 238 90 232 102 c 0
226 115 223 129 224 143 c 0
226 157 231 171 240 183 c 0
254 202 277 213 301 213 c 0
325 213 348 202 363 183 c 0
Z
243 180 m 0
234 169 229 156 228 142 c 0
227 129 230 115 236 103 c 0
242 91 251 80 263 73 c 0
274 66 288 62 302 63 c 0
315 63 328 66 340 74 c 0
351 81 361 91 367 103 c 0
372 115 375 129 374 142 c 0
373 156 368 169 360 180 c 0
346 198 324 209 301 209 c 0
278 209 256 198 243 180 c 0
Z
Spiro
359 664 v
364 664 v
64 60 v
60 60 v
60 540 c
122 663 c
183 540 c
180 543 c
121 660 c
63 543 c
363 183 c
301 60 c
240 183 c
243 180 c
302 63 c
360 180 c
0 0 z
EndSpiro
EndSplineSet
        Fore
        SplineSet
297 720 m 0
422 720 l 0
122 0 l 0
-2 0 l 0
297 720 l 0
Z
9 503 m 0
-5 523 -14 547 -16 572 c 0
-18 597 -13 622 -1 645 c 0
9 667 27 686 48 699 c 0
69 712 94 719 120 719 c 0
144 718 169 711 190 698 c 0
211 685 229 666 240 644 c 0
251 622 256 597 254 573 c 0
253 548 244 524 230 504 c 0
205 468 162 447 119 446 c 0
76 446 34 468 9 503 c 0
Z
129 575 m 0
131 576 132 579 133 582 c 0
134 585 134 588 133 591 c 0
132 593 130 596 127 597 c 0
125 599 121 600 119 600 c 0
116 599 113 598 111 597 c 0
109 595 107 593 106 590 c 0
105 588 105 585 106 582 c 0
106 580 108 577 110 576 c 0
112 573 115 572 119 571 c 0
122 571 126 572 129 575 c 0
Z
410 216 m 0
424 195 433 171 435 146 c 0
437 121 432 96 420 73 c 0
409 51 391 32 370 19 c 0
349 6 324 0 299 0 c 0
274 0 249 7 228 20 c 0
207 33 189 52 178 74 c 0
167 96 162 121 164 145 c 0
165 170 174 194 189 215 c 0
213 250 256 271 299 272 c 0
342 272 384 250 410 216 c 0
Z
290 144 m 0
287 142 286 139 285 136 c 0
284 133 284 130 285 127 c 0
286 125 288 122 291 121 c 0
293 119 297 118 300 119 c 0
302 119 305 120 307 121 c 0
309 123 311 125 312 128 c 0
313 130 313 133 312 136 c 0
312 138 310 141 309 143 c 0
306 145 303 146 299 147 c 0
296 147 292 146 290 144 c 0
Z
Spiro
297 720 v
422 720 v
122 0 v
-2 0 v
9 503 c
120 719 c
230 504 c
129 575 c
119 600 c
110 576 c
410 216 c
299 0 c
189 215 c
290 144 c
300 119 c
309 143 c
0 0 z
EndSpiro
EndSplineSet
        EndChar
StartChar: &
Encoding: 38 38 11
Width: 526
InSpiro: 1
Flags: H
LayerCount: 2
Back
SplineSet
364 60 m 0
 359 60 l 0
 210 210 l 0
 169 251 128 294 101 345 c 0
 73 396 58 454 60 512 c 0
 60 554 70 598 98 630 c 0
 111 646 129 659 149 665 c 0
 170 671 192 671 212 663 c 0
 225 657 237 647 246 636 c 0
 255 624 261 611 265 597 c 0
 273 569 270 539 264 511 c 0
 249 450 213 395 163 360 c 0
 150 350 136 342 123 333 c 0
 110 324 97 314 88 301 c 0
 78 289 71 274 67 259 c 0
 64 243 64 227 64 212 c 0
 64 195 64 179 67 163 c 0
 69 147 75 131 84 117 c 0
 92 103 104 92 117 82 c 0
 131 73 146 67 162 63 c 0
 201 52 243 57 279 75 c 0
 315 94 344 126 359 164 c 0
 364 164 l 0
 348 125 319 92 282 73 c 0
 245 54 201 49 161 60 c 0
 144 64 129 70 115 79 c 0
 101 89 89 101 80 115 c 0
 71 129 66 145 63 162 c 0
 60 178 59 195 60 212 c 0
 60 228 60 244 64 260 c 0
 67 275 74 290 84 303 c 0
 94 316 106 326 119 336 c 0
 133 345 146 353 160 363 c 0
 209 398 244 452 259 512 c 0
 265 539 268 568 261 595 c 0
 258 609 252 622 243 633 c 0
 235 644 223 654 211 660 c 0
 192 668 169 668 150 662 c 0
 130 656 112 643 99 627 c 0
 73 595 64 552 64 511 c 0
 63 453 78 396 105 346 c 0
 133 296 172 253 213 213 c 0
 364 60 l 0
  Spiro
    364 60 v
    359 60 v
    210 210 ]
    60 512 c
    212 663 c
    264 511 c
    163 360 c
    64 212 a
    64 192 h
    162 63 c
    359 164 v
    364 164 v
    161 60 c
    60 212 a
    60 232 h
    160 363 c
    259 512 c
    211 660 c
    64 511 c
    213 213 [
    0 0 z
  EndSpiro
EndSplineSet
Fore
SplineSet
422 0 m 0
 297 0 l 0
 165 167 l 0
 124 217 84 268 52 325 c 0
 21 382 0 445 -2 510 c 0
 -2 541 2 572 12 601 c 0
 23 631 40 658 62 679 c 0
 85 701 113 717 143 723 c 0
 174 730 206 727 235 714 c 0
 273 696 301 660 315 620 c 0
 329 580 329 536 321 495 c 0
 313 457 299 421 278 389 c 0
 257 357 229 329 196 311 c 0
 186 305 176 300 166 294 c 0
 156 288 147 281 140 273 c 0
 133 264 128 254 125 243 c 0
 123 232 123 221 123 210 c 0
 123 200 123 190 124 181 c 0
 125 172 128 163 133 154 c 0
 141 137 157 124 175 118 c 0
 190 112 206 110 222 113 c 0
 238 115 253 122 266 133 c 0
 278 143 287 157 293 172 c 0
 298 187 300 204 297 220 c 0
 422 220 l 0
 418 153 385 88 333 46 c 0
 280 5 209 -11 144 1 c 0
 120 5 98 13 78 25 c 0
 58 38 40 54 27 74 c 0
 14 93 5 116 1 139 c 0
 -2 162 -3 186 -3 210 c 0
 -2 230 -2 251 2 271 c 0
 7 291 16 311 28 327 c 0
 41 344 57 357 73 370 c 0
 90 382 107 394 123 408 c 0
 157 438 182 480 198 524 c 0
 202 538 207 552 205 567 c 0
 205 575 203 582 199 589 c 0
 195 595 190 601 184 605 c 0
 178 607 172 609 166 609 c 0
 160 609 154 607 149 605 c 0
 138 600 129 590 124 579 c 0
 119 569 117 556 117 544 c 0
 117 532 119 520 122 509 c 0
 143 414 200 332 254 252 c 0
 422 0 l 0
  Spiro
    422 0 v
    297 0 v
    165 167 ]
    -2 510 c
    235 714 c
    321 495 c
    196 311 c
    123 210 a
    123 190 h
    175 118 c
    297 220 v
    422 220 v
    144 1 c
    -3 210 a
    -3 230 h
    123 408 c
    198 524 c
    184 605 c
    122 509 c
    254 252 [
    0 0 z
  EndSpiro
EndSplineSet
EndChar
StartChar: &
Encoding: 38 38 0
Width: 526
InSpiro: 1
        Flags: H
        LayerCount: 2
        Back
        SplineSet
364 60 m 0
359 60 l 0
210 210 l 0
169 251 128 294 101 344 c 0
73 395 58 454 60 512 c 0
61 554 71 597 98 629 c 0
112 645 130 658 150 664 c 0
170 671 192 670 212 663 c 0
225 657 237 648 246 636 c 0
256 625 262 612 266 597 c 0
275 569 272 539 264 511 c 0
246 452 205 403 163 360 c 0
141 338 119 317 101 293 c 0
82 268 67 241 64 211 c 0
59 179 68 146 86 119 c 0
104 93 131 73 162 63 c 0
200 50 245 53 281 72 c 0
318 90 346 124 359 164 c 0
364 164 l 0
351 123 321 88 284 69 c 0
246 50 201 46 161 60 c 0
129 70 101 90 82 117 c 0
64 145 55 179 60 212 c 0
64 242 78 270 97 295 c 0
116 319 138 340 160 363 c 0
201 406 241 454 259 512 c 0
267 539 270 568 263 596 c 0
259 609 253 622 244 634 c 0
235 645 224 654 211 660 c 0
191 668 170 668 150 661 c 0
130 655 113 642 100 627 c 0
73 595 64 552 64 511 c 0
63 453 78 396 105 346 c 0
133 296 172 253 213 213 c 0
364 60 l 0
Z
Spiro
364 60 v
359 60 v
210 210 ]
60 512 c
212 663 c
264 511 c
163 360 c
64 211 c
162 63 c
359 164 v
364 164 v
161 60 c
60 212 c
160 363 c
259 512 c
211 660 c
64 511 c
213 213 [
0 0 z
EndSpiro
EndSplineSet
        Fore
        SplineSet
422 0 m 0
297 0 l 0
165 167 l 0
124 217 84 269 52 325 c 0
20 382 -1 446 -2 511 c 0
-2 572 18 636 63 678 c 0
85 700 113 715 143 722 c 0
173 729 205 727 234 715 c 0
273 697 304 661 318 620 c 0
332 579 331 533 320 492 c 0
301 423 256 365 204 318 c 0
186 301 166 286 151 267 c 0
135 248 123 226 122 202 c 0
120 183 126 165 136 150 c 0
146 134 161 123 179 117 c 0
193 111 210 110 225 113 c 0
241 116 256 123 268 133 c 0
280 144 289 157 294 172 c 0
299 188 300 204 297 220 c 0
422 220 l 0
424 150 391 80 337 38 c 0
282 -3 206 -17 140 2 c 0
95 15 54 44 28 82 c 0
1 121 -9 170 -2 217 c 0
4 253 21 286 43 316 c 0
64 346 90 373 115 401 c 0
148 438 181 479 199 527 c 0
203 540 207 554 206 568 c 0
205 575 203 582 199 589 c 0
196 595 191 600 185 604 c 0
179 606 173 608 167 608 c 0
161 608 155 607 149 604 c 0
138 599 130 590 124 579 c 0
119 568 117 556 117 544 c 0
117 531 119 519 122 508 c 0
143 413 200 332 254 252 c 0
422 0 l 0
Z
Spiro
422 0 v
297 0 v
165 167 ]
-2 511 c
234 715 c
320 492 c
204 318 c
122 202 c
179 117 c
297 220 v
422 220 v
140 2 c
-2 217 c
115 401 c
199 527 c
185 604 c
122 508 c
254 252 [
0 0 z
EndSpiro
EndSplineSet
        EndChar
StartChar: (
Encoding: 40 40 0
Width: 376
InSpiro: 1
        Flags: H
        LayerCount: 2
        Back
        SplineSet
214 666 m 0
214 662 l 0
121 592 63 477 64 362 c 0
64 246 121 131 214 62 c 0
214 58 l 0
118 127 59 244 60 362 c 0
60 479 118 596 214 666 c 0
Z
Spiro
214 666 v
214 662 v
64 362 c
214 62 v
214 58 v
60 362 c
0 0 z
EndSpiro
EndSplineSet
        Fore
        SplineSet
272 780 m 0
272 660 l 0
179 590 123 475 123 360 c 0
123 244 179 129 272 60 c 0
272 -60 l 0
190 -24 120 34 71 108 c 0
23 183 -2 271 -3 360 c 0
-2 448 23 536 71 611 c 0
120 685 190 744 272 780 c 0
Z
Spiro
272 780 v
272 660 v
123 360 c
272 60 v
272 -60 v
-3 360 c
0 0 z
EndSpiro
EndSplineSet
        EndChar
StartChar: )
Encoding: 41 41 0
Width: 376
InSpiro: 1
        Flags: H
        LayerCount: 2
        Back
        SplineSet
60 662 m 0
60 666 l 0
155 596 214 479 214 362 c 0
214 244 155 127 60 58 c 0
60 62 l 0
152 131 209 246 209 362 c 0
209 477 152 592 60 662 c 0
Z
Spiro
60 662 v
60 666 v
214 362 c
60 58 v
60 62 v
209 362 c
0 0 z
EndSpiro
EndSplineSet
        Fore
        SplineSet
-2 660 m 0
-2 780 l 0
79 744 149 685 198 611 c 0
246 536 273 448 273 360 c 0
273 271 246 183 198 108 c 0
149 34 79 -24 -2 -60 c 0
-2 60 l 0
90 129 147 244 147 360 c 0
147 475 90 590 -2 660 c 0
Z
Spiro
-2 660 v
-2 780 v
273 360 c
-2 -60 v
-2 60 v
147 360 c
0 0 z
EndSpiro
EndSplineSet
        EndChar
StartChar: *
Encoding: 42 42 0
Width: 466
InSpiro: 1
        Flags: H
        LayerCount: 2
        Back
        SplineSet
60 460 m 0
60 464 l 0
304 464 l 0
304 460 l 0
60 460 l 0
Z
119 593 m 0
124 593 l 0
256 331 l 0
251 331 l 0
119 593 l 0
Z
251 593 m 0
256 593 l 0
124 331 l 0
119 331 l 0
251 593 l 0
Z
Spiro
60 460 v
60 464 v
304 464 v
304 460 v
119 593 v
124 593 v
256 331 v
251 331 v
251 593 v
256 593 v
124 331 v
119 331 v
0 0 z
EndSpiro
EndSplineSet
        Fore
        SplineSet
-2 400 m 0
-2 520 l 0
362 520 l 0
362 400 l 0
-2 400 l 0
Z
57 649 m 0
182 649 l 0
314 271 l 0
189 271 l 0
57 649 l 0
Z
189 649 m 0
314 649 l 0
182 271 l 0
57 271 l 0
189 649 l 0
Z
Spiro
-2 400 v
-2 520 v
362 520 v
362 400 v
57 649 v
182 649 v
314 271 v
189 271 v
189 649 v
314 649 v
182 271 v
57 271 v
0 0 z
EndSpiro
EndSplineSet
        EndChar
StartChar: +
Encoding: 43 43 0
Width: 526
InSpiro: 1
        Flags: H
        LayerCount: 2
        Back
        SplineSet
60 360 m 0
60 364 l 0
364 364 l 0
364 360 l 0
60 360 l 0
Z
209 514 m 0
214 514 l 0
214 210 l 0
209 210 l 0
209 514 l 0
Z
Spiro
60 360 v
60 364 v
364 364 v
364 360 v
209 514 v
214 514 v
214 210 v
209 210 v
0 0 z
EndSpiro
EndSplineSet
        Fore
        SplineSet
-2 300 m 0
-2 420 l 0
422 420 l 0
422 300 l 0
-2 300 l 0
Z
147 570 m 0
272 570 l 0
272 150 l 0
147 150 l 0
147 570 l 0
Z
Spiro
-2 300 v
-2 420 v
422 420 v
422 300 v
147 570 v
272 570 v
272 150 v
147 150 v
0 0 z
EndSpiro
EndSplineSet
        EndChar
StartChar: ,
Encoding: 44 44 15
Width: 376
InSpiro: 1
Flags: H
LayerCount: 2
Back
SplineSet
209 64 m 0
 214 64 l 0
 212 58 l 0
 207 58 l 0
 209 64 l 0
  Spiro
    209 64 v
    214 64 v
    212 58 v
    207 58 v
    0 0 z
  EndSpiro
EndSplineSet
Fore
SplineSet
147 120 m 0
 272 120 l 0
 222 -50 l 0
 97 -50 l 0
 147 120 l 0
  Spiro
    147 120 v
    272 120 v
    222 -50 v
    97 -50 v
    0 0 z
  EndSpiro
EndSplineSet
EndChar
StartChar: -
Encoding: 45 45 0
Width: 466
InSpiro: 1
        Flags: H
        LayerCount: 2
        Back
        SplineSet
60 360 m 0
60 364 l 0
304 364 l 0
304 360 l 0
60 360 l 0
Z
Spiro
60 360 v
60 364 v
304 364 v
304 360 v
0 0 z
EndSpiro
EndSplineSet
        Fore
        SplineSet
-2 300 m 0
-2 420 l 0
362 420 l 0
362 300 l 0
-2 300 l 0
Z
Spiro
-2 300 v
-2 420 v
362 420 v
362 300 v
0 0 z
EndSpiro
EndSplineSet
        EndChar
StartChar: .
Encoding: 46 46 0
Width: 376
InSpiro: 1
        Flags: H
        LayerCount: 2
        Back
        SplineSet
212 55 m 0
213 54 215 55 216 57 c 0
218 58 219 60 219 62 c 0
218 63 218 65 216 66 c 0
215 68 213 68 212 69 c 0
210 69 208 68 207 66 c 0
205 65 205 63 205 62 c 0
204 60 205 58 207 57 c 0
208 55 210 54 212 55 c 0
Z
Spiro
212 55 c
219 62 c
212 69 c
205 62 c
0 0 z
EndSpiro
EndSplineSet
        Fore
        SplineSet
210 -5 m 0
227 -5 243 2 255 14 c 0
267 26 275 42 275 60 c 0
274 77 267 93 255 105 c 0
243 117 227 124 210 125 c 0
192 125 176 117 164 105 c 0
152 93 145 77 145 60 c 0
144 42 152 26 164 14 c 0
176 2 192 -5 210 -5 c 0
Z
Spiro
210 -5 c
275 60 c
210 125 c
145 60 c
0 0 z
EndSpiro
EndSplineSet
        EndChar
StartChar: /
Encoding: 47 47 41
Width: 692
InSpiro: 1
Flags: H
LayerCount: 2
Back
SplineSet
403 666 m 0
 408 666 l 0
 108 58 l 0
 103 58 l 0
 403 666 l 0
  Spiro
    403 666 v
    408 666 v
    108 58 v
    103 58 v
    0 0 z
  EndSpiro
EndSplineSet
Fore
SplineSet
463 780 m 0
 588 780 l 0
 288 -60 l 0
 163 -60 l 0
 463 780 l 0
  Spiro
    463 780 v
    588 780 v
    288 -60 v
    163 -60 v
    0 0 z
  EndSpiro
EndSplineSet
EndChar
StartChar: /
Encoding: 47 47 0
Width: 526
InSpiro: 1
        Flags: H
        LayerCount: 2
        Back
        SplineSet
359 666 m 0
364 666 l 0
64 58 l 0
60 58 l 0
359 666 l 0
Z
Spiro
359 666 v
364 666 v
64 58 v
60 58 v
0 0 z
EndSpiro
EndSplineSet
        Fore
        SplineSet
297 780 m 0
422 780 l 0
122 -60 l 0
-2 -60 l 0
297 780 l 0
Z
Spiro
297 780 v
422 780 v
122 -60 v
-2 -60 v
0 0 z
EndSpiro
EndSplineSet
        EndChar
StartChar: 0
Encoding: 48 48 0
Width: 526
InSpiro: 1
        Flags: H
        LayerCount: 2
        Back
        SplineSet
64 362 m 0
64 299 59 236 79 177 c 0
88 147 104 119 127 98 c 0
150 77 180 63 212 64 c 0
243 64 273 77 295 98 c 0
318 119 334 147 344 177 c 0
363 236 358 299 359 362 c 0
359 424 363 487 344 546 c 0
334 576 318 604 295 625 c 0
273 646 243 659 212 660 c 0
180 660 150 646 127 625 c 0
104 604 88 576 79 547 c 0
59 487 64 424 64 362 c 0
Z
211 664 m 0
242 664 273 650 297 629 c 0
320 608 337 579 347 549 c 0
368 489 364 424 364 361 c 0
363 297 367 233 347 173 c 0
336 143 320 115 296 94 c 0
273 73 242 59 211 60 c 0
179 60 149 74 125 95 c 0
102 116 86 144 76 174 c 0
56 233 60 298 60 361 c 0
59 424 55 489 75 548 c 0
85 578 102 607 125 628 c 0
148 649 179 663 211 664 c 0
Z
359 664 m 0
364 664 l 0
64 60 l 0
60 60 l 0
359 664 l 0
Z
Spiro
64 362 c
212 64 c
359 362 c
212 660 c
211 664 c
364 361 c
211 60 c
60 361 c
359 664 v
364 664 v
64 60 v
60 60 v
0 0 z
EndSpiro
EndSplineSet
        Fore
        SplineSet
123 360 m 0
123 311 111 263 119 216 c 0
123 192 131 169 147 150 c 0
155 141 164 134 175 128 c 0
186 123 197 120 210 120 c 0
222 119 233 123 244 128 c 0
255 134 264 141 272 150 c 0
288 169 296 192 300 216 c 0
308 263 296 311 297 360 c 0
297 408 308 456 300 503 c 0
296 527 288 550 272 569 c 0
264 578 255 585 244 591 c 0
233 596 222 599 210 600 c 0
197 599 186 596 175 591 c 0
164 585 155 578 147 569 c 0
131 550 123 527 119 503 c 0
111 456 123 408 123 360 c 0
Z
209 720 m 0
248 720 286 705 317 681 c 0
348 657 371 624 387 589 c 0
420 517 423 437 423 359 c 0
422 281 419 200 387 130 c 0
371 94 347 62 316 38 c 0
286 14 247 0 209 0 c 0
170 0 132 15 101 39 c 0
71 63 48 95 32 130 c 0
0 201 -2 281 -3 359 c 0
-3 436 0 517 31 588 c 0
47 623 70 656 101 680 c 0
131 704 170 719 209 720 c 0
Z
297 720 m 0
422 720 l 0
122 0 l 0
-2 0 l 0
297 720 l 0
Z
Spiro
123 360 c
210 120 c
297 360 c
210 600 c
209 720 c
423 359 c
209 0 c
-3 359 c
297 720 v
422 720 v
122 0 v
-2 0 v
0 0 z
EndSpiro
EndSplineSet
        EndChar
StartChar: 1
Encoding: 49 49 0
Width: 346
InSpiro: 1
        Flags: H
        LayerCount: 2
        Back
        SplineSet
64 540 m 0
60 540 l 0
63 664 l 0
68 664 l 0
68 60 l 0
63 60 l 0
63 541 l 0
64 540 l 0
Z
Spiro
64 540 v
60 540 v
63 664 v
68 664 v
68 60 v
63 60 v
63 541 v
0 0 z
EndSpiro
EndSplineSet
        Fore
        SplineSet
122 480 m 0
60 480 l 0
-2 480 l 0
242 720 l 0
242 720 l 0
242 0 l 0
117 0 l 0
118 515 l 0
122 480 l 0
Z
Spiro
122 480 v
60 480 c
-2 480 v
242 720 v
242 720 v
242 0 v
117 0 v
118 515 v
0 0 z
EndSpiro
EndSplineSet
        EndChar
StartChar: 3
Encoding: 51 51 0
Width: 526
InSpiro: 1
        Flags: H
        LayerCount: 2
        Back
        SplineSet
64 560 m 0
60 560 l 0
70 591 90 619 118 637 c 0
145 656 179 665 212 663 c 0
250 660 287 642 314 614 c 0
341 586 358 550 364 512 c 0
367 491 366 469 361 449 c 0
356 429 345 410 330 395 c 0
315 380 296 370 275 365 c 0
255 360 234 359 213 360 c 0
209 360 l 0
209 364 l 0
213 364 l 0
233 364 253 364 273 369 c 0
293 374 311 384 326 398 c 0
340 412 351 430 356 450 c 0
361 470 361 490 359 511 c 0
353 548 337 584 311 611 c 0
284 639 248 657 211 660 c 0
179 662 146 653 120 635 c 0
93 617 73 590 64 560 c 0
Z
209 360 m 0
209 364 l 0
213 364 l 0
234 364 255 363 275 358 c 0
296 353 315 343 330 328 c 0
345 313 356 294 361 273 c 0
367 253 367 231 364 211 c 0
358 172 341 136 314 108 c 0
287 80 250 62 212 60 c 0
178 57 145 66 117 85 c 0
90 104 69 132 60 164 c 0
64 164 l 0
73 133 93 105 119 87 c 0
146 69 178 60 211 63 c 0
248 65 284 83 310 111 c 0
337 138 353 174 359 212 c 0
361 232 361 253 356 272 c 0
351 292 341 311 326 325 c 0
312 339 293 349 273 354 c 0
254 359 233 360 213 360 c 0
209 360 l 0
Z
Spiro
64 560 v
60 560 v
212 663 c
364 512 c
213 360 [
209 360 v
209 364 v
213 364 ]
359 511 c
211 660 c
209 360 v
209 364 v
213 364 ]
364 211 c
212 60 c
60 164 v
64 164 v
211 63 c
359 212 c
213 360 [
0 0 z
EndSpiro
EndSplineSet
        Fore
        SplineSet
122 500 m 0
-2 500 l 0
-6 558 14 617 55 659 c 0
96 700 155 723 214 719 c 0
265 715 315 691 352 654 c 0
388 617 412 569 422 518 c 0
427 488 427 457 420 428 c 0
413 399 399 372 377 351 c 0
356 329 329 315 300 307 c 0
271 300 240 299 211 300 c 0
147 300 l 0
147 420 l 0
211 420 l 0
222 420 233 420 245 422 c 0
256 425 266 430 275 438 c 0
283 446 289 456 293 467 c 0
296 478 297 489 297 501 c 0
295 525 286 550 270 568 c 0
253 587 229 599 205 600 c 0
180 600 155 589 139 570 c 0
123 550 116 524 122 500 c 0
Z
147 300 m 0
147 420 l 0
211 420 l 0
241 420 271 419 300 411 c 0
329 404 357 389 378 368 c 0
399 347 414 319 421 290 c 0
428 261 427 230 422 201 c 0
412 149 388 101 352 64 c 0
315 27 265 3 214 0 c 0
155 -4 96 18 55 60 c 0
14 101 -7 161 -2 220 c 0
122 220 l 0
116 195 122 168 138 149 c 0
154 129 179 118 205 119 c 0
229 119 253 131 269 150 c 0
286 168 295 193 297 218 c 0
297 229 296 241 293 252 c 0
289 263 283 273 275 281 c 0
267 288 256 294 245 297 c 0
234 299 222 300 211 300 c 0
147 300 l 0
Z
Spiro
122 500 v
-2 500 v
214 719 c
422 518 c
211 300 [
147 300 v
147 420 v
211 420 ]
297 501 c
205 600 c
147 300 v
147 420 v
211 420 ]
422 201 c
214 0 c
-2 220 v
122 220 v
205 119 c
297 218 c
211 300 [
0 0 z
EndSpiro
EndSplineSet
        EndChar
StartChar: 4
Encoding: 52 52 0
Width: 526
InSpiro: 1
        Flags: H
        LayerCount: 2
        Back
        SplineSet
304 60 m 0
299 60 l 0
299 654 l 0
65 214 l 0
364 214 l 0
364 210 l 0
60 210 l 0
60 210 l 0
299 664 l 0
304 664 l 0
304 60 l 0
Z
Spiro
304 60 v
299 60 v
299 654 v
65 214 v
364 214 v
364 210 v
60 210 v
60 210 v
299 664 v
304 664 v
0 0 z
EndSpiro
EndSplineSet
        Fore
        SplineSet
362 0 m 0
237 0 l 0
239 420 l 0
162 270 l 0
422 270 l 0
422 150 l 0
-2 150 l 0
-2 150 l 0
237 720 l 0
362 720 l 0
362 0 l 0
Z
Spiro
362 0 v
237 0 v
239 420 v
162 270 v
422 270 v
422 150 v
-2 150 v
-2 150 v
237 720 v
362 720 v
0 0 z
EndSpiro
EndSplineSet
        EndChar
StartChar: 5
Encoding: 53 53 0
Width: 526
InSpiro: 1
        Flags: H
        LayerCount: 2
        Back
        SplineSet
364 664 m 0
364 660 l 0
64 660 l 0
64 360 l 0
60 360 l 0
60 664 l 0
60 664 l 0
364 664 l 0
Z
64 360 m 0
60 360 l 0
68 392 89 420 117 439 c 0
144 458 178 466 212 463 c 0
257 457 299 430 325 392 c 0
352 354 363 307 364 262 c 0
364 215 352 168 326 130 c 0
299 93 257 64 212 60 c 0
178 56 144 65 116 83 c 0
89 102 68 131 60 164 c 0
64 164 l 0
72 132 92 104 118 86 c 0
145 67 178 59 211 63 c 0
255 67 296 95 322 132 c 0
347 170 358 215 359 261 c 0
359 306 347 352 322 389 c 0
296 427 256 455 211 460 c 0
178 463 145 455 119 437 c 0
92 418 72 391 64 360 c 0
Z
Spiro
364 664 v
364 660 v
64 660 v
64 360 v
60 360 v
60 664 v
60 664 v
64 360 v
60 360 v
212 463 c
364 262 c
212 60 c
60 164 v
64 164 v
211 63 c
359 261 c
211 460 c
0 0 z
EndSpiro
EndSplineSet
        Fore
        SplineSet
422 720 m 0
422 600 l 0
122 600 l 0
122 300 l 0
-2 300 l 0
-2 720 l 0
-2 720 l 0
422 720 l 0
Z
122 300 m 0
-2 300 l 0
-8 358 13 420 55 461 c 0
96 503 158 525 217 519 c 0
276 512 332 477 368 429 c 0
404 381 421 320 422 260 c 0
422 199 404 138 368 89 c 0
332 41 277 6 217 0 c 0
157 -6 96 15 54 57 c 0
12 99 -8 161 -2 220 c 0
122 220 l 0
114 195 119 168 135 148 c 0
150 128 176 117 202 119 c 0
217 120 232 125 245 134 c 0
257 143 268 155 276 169 c 0
291 196 296 227 297 259 c 0
297 290 292 322 276 349 c 0
268 362 258 375 245 384 c 0
232 393 217 398 202 400 c 0
177 401 151 390 135 370 c 0
120 351 114 324 122 300 c 0
Z
Spiro
422 720 v
422 600 v
122 600 v
122 300 v
-2 300 v
-2 720 v
-2 720 v
122 300 v
-2 300 v
217 519 c
422 260 c
217 0 c
-2 220 v
122 220 v
202 119 c
297 259 c
202 400 c
0 0 z
EndSpiro
EndSplineSet
        EndChar
StartChar: 8
Encoding: 56 56 0
Width: 526
InSpiro: 1
        Flags: H
        LayerCount: 2
        Back
        SplineSet
Spiro
0 0 z
EndSpiro
EndSplineSet
        Fore
        SplineSet
Spiro
0 0 z
EndSpiro
EndSplineSet
        EndChar
StartChar: C
Encoding: 67 67 0
Width: 526
InSpiro: 1
        Flags: H
        LayerCount: 2
        Back
        SplineSet
364 560 m 0
359 560 l 0
352 591 332 620 305 639 c 0
278 657 244 665 212 660 c 0
182 655 154 639 132 618 c 0
111 596 95 570 85 541 c 0
64 484 64 422 64 362 c 0
63 301 63 238 84 181 c 0
95 153 110 126 132 104 c 0
154 83 181 67 212 63 c 0
244 57 278 65 305 84 c 0
332 102 352 131 359 164 c 0
364 164 l 0
357 130 336 100 308 81 c 0
280 61 244 54 211 60 c 0
180 65 152 80 131 102 c 0
109 123 93 150 82 179 c 0
60 236 60 299 60 361 c 0
59 422 60 485 82 542 c 0
92 571 108 598 130 620 c 0
152 641 180 657 211 663 c 0
244 668 280 661 308 642 c 0
336 623 356 593 364 560 c 0
Z
Spiro
364 560 v
359 560 v
212 660 c
64 362 c
212 63 c
359 164 v
364 164 v
211 60 c
60 361 c
211 663 c
0 0 z
EndSpiro
EndSplineSet
        Fore
        SplineSet
422 500 m 0
297 500 l 0
304 523 299 550 284 569 c 0
269 589 244 600 220 600 c 0
195 599 173 586 156 568 c 0
140 550 130 528 125 504 c 0
115 457 123 408 123 360 c 0
122 311 114 262 125 215 c 0
130 191 140 168 156 150 c 0
172 132 195 119 220 119 c 0
244 118 269 129 284 149 c 0
299 169 304 196 297 220 c 0
422 220 l 0
433 159 413 93 369 50 c 0
325 7 259 -12 199 0 c 0
162 7 128 25 100 50 c 0
73 75 51 106 35 140 c 0
4 208 -2 284 -3 359 c 0
-3 433 4 510 35 577 c 0
51 611 72 643 100 668 c 0
128 693 162 711 199 719 c 0
259 731 324 711 368 668 c 0
412 625 433 560 422 500 c 0
Z
Spiro
422 500 v
297 500 v
220 600 c
123 360 c
220 119 c
297 220 v
422 220 v
199 0 c
-3 359 c
199 719 c
0 0 z
EndSpiro
EndSplineSet
        EndChar
StartChar: E
Encoding: 69 69 0
Width: 526
InSpiro: 1
        Flags: H
        LayerCount: 2
        Back
        SplineSet
364 664 m 0
364 660 l 0
64 660 l 0
64 64 l 0
364 64 l 0
364 60 l 0
60 60 l 0
60 60 l 0
60 664 l 0
60 664 l 0
364 664 l 0
Z
60 360 m 0
60 364 l 0
364 364 l 0
364 360 l 0
60 360 l 0
Z
Spiro
364 664 v
364 660 v
64 660 v
64 64 v
364 64 v
364 60 v
60 60 v
60 60 v
60 664 v
60 664 v
60 360 v
60 364 v
364 364 v
364 360 v
0 0 z
EndSpiro
EndSplineSet
        Fore
        SplineSet
422 720 m 0
422 600 l 0
122 600 l 0
122 120 l 0
422 120 l 0
422 0 l 0
-2 0 l 0
-2 0 l 0
-2 720 l 0
-2 720 l 0
422 720 l 0
Z
-2 300 m 0
-2 420 l 0
422 420 l 0
422 300 l 0
-2 300 l 0
Z
Spiro
422 720 v
422 600 v
122 600 v
122 120 v
422 120 v
422 0 v
-2 0 v
-2 0 v
-2 720 v
-2 720 v
-2 300 v
-2 420 v
422 420 v
422 300 v
0 0 z
EndSpiro
EndSplineSet
        EndChar
StartChar: I
Encoding: 73 73 0
Width: 226
InSpiro: 1
        Flags: H
        LayerCount: 2
        Back
        SplineSet
60 664 m 0
64 664 l 0
64 60 l 0
60 60 l 0
60 664 l 0
Z
Spiro
60 664 v
64 664 v
64 60 v
60 60 v
0 0 z
EndSpiro
EndSplineSet
        Fore
        SplineSet
-2 720 m 0
122 720 l 0
122 0 l 0
-2 0 l 0
-2 720 l 0
Z
Spiro
-2 720 v
122 720 v
122 0 v
-2 0 v
0 0 z
EndSpiro
EndSplineSet
        EndChar
StartChar: J
Encoding: 74 74 0
Width: 526
InSpiro: 1
        Flags: H
        LayerCount: 2
        Back
        SplineSet
60 660 m 0
60 664 l 0
364 664 l 0
364 664 l 0
364 362 l 0
363 300 363 237 341 179 c 0
331 150 314 123 292 102 c 0
270 80 242 64 212 60 c 0
178 54 143 62 115 81 c 0
87 100 67 130 60 164 c 0
64 164 l 0
70 131 90 102 117 83 c 0
144 65 178 57 211 63 c 0
240 67 268 83 290 104 c 0
311 126 327 153 337 181 c 0
358 238 358 301 359 362 c 0
359 660 l 0
60 660 l 0
Z
Spiro
60 660 v
60 664 v
364 664 v
364 664 v
364 362 ]
212 60 c
60 164 v
64 164 v
211 63 c
359 362 [
359 660 v
0 0 z
EndSpiro
EndSplineSet
        Fore
        SplineSet
-2 600 m 0
-2 720 l 0
422 720 l 0
422 720 l 0
423 360 l 0
423 284 421 206 389 137 c 0
373 102 350 71 321 47 c 0
292 22 257 5 220 0 c 0
160 -9 96 11 53 53 c 0
10 96 -10 160 -2 220 c 0
122 220 l 0
117 208 115 195 117 182 c 0
119 170 124 157 132 147 c 0
139 137 150 129 161 124 c 0
173 119 186 117 199 119 c 0
222 121 244 135 259 153 c 0
274 172 283 194 288 218 c 0
299 264 296 312 297 360 c 0
297 600 l 0
-2 600 l 0
Z
Spiro
-2 600 v
-2 720 v
422 720 v
422 720 v
423 360 ]
220 0 c
-2 220 v
122 220 v
199 119 c
297 360 [
297 600 v
0 0 z
EndSpiro
EndSplineSet
        EndChar
StartChar: K
Encoding: 75 75 0
Width: 526
InSpiro: 1
        Flags: H
        LayerCount: 2
        Back
        SplineSet
359 664 m 0
364 664 l 0
64 361 l 0
64 60 l 0
60 60 l 0
60 364 l 0
60 364 l 0
359 664 l 0
Z
60 664 m 0
64 664 l 0
64 362 l 0
364 60 l 0
359 60 l 0
60 360 l 0
60 360 l 0
60 664 l 0
Z
Spiro
359 664 v
364 664 v
64 361 v
64 60 v
60 60 v
60 364 v
60 364 v
60 664 v
64 664 v
64 362 v
364 60 v
359 60 v
60 360 v
60 360 v
0 0 z
EndSpiro
EndSplineSet
        Fore
        SplineSet
297 720 m 0
422 720 l 0
122 335 l 0
122 0 l 0
-2 0 l 0
-2 420 l 0
-2 420 l 0
297 720 l 0
Z
-2 720 m 0
122 720 l 0
122 384 l 0
422 0 l 0
297 0 l 0
-2 300 l 0
-2 300 l 0
-2 720 l 0
Z
Spiro
297 720 v
422 720 v
122 335 v
122 0 v
-2 0 v
-2 420 v
-2 420 v
-2 720 v
122 720 v
122 384 v
422 0 v
297 0 v
-2 300 v
-2 300 v
0 0 z
EndSpiro
EndSplineSet
        EndChar
StartChar: P
Encoding: 80 80 0
Width: 526
InSpiro: 1
        Flags: H
        LayerCount: 2
        Back
        SplineSet
64 60 m 0
60 60 l 0
60 664 l 0
60 664 l 0
212 664 l 0
232 664 253 663 273 658 c 0
293 652 312 642 326 627 c 0
341 612 351 593 356 573 c 0
362 553 364 532 364 512 c 0
364 491 362 470 356 450 c 0
351 430 341 411 326 396 c 0
312 381 293 371 273 365 c 0
253 360 232 359 212 360 c 0
60 360 l 0
60 364 l 0
212 364 l 0
232 364 252 364 271 369 c 0
291 375 309 385 323 399 c 0
337 414 346 432 352 452 c 0
357 471 359 491 359 512 c 0
359 532 357 552 352 571 c 0
346 591 337 609 323 624 c 0
309 638 291 648 271 654 c 0
252 659 232 660 212 660 c 0
64 660 l 0
64 60 l 0
Z
Spiro
64 60 v
60 60 v
60 664 v
60 664 v
212 664 ]
364 512 c
212 360 [
60 360 v
60 364 v
212 364 ]
359 512 c
212 660 [
64 660 v
0 0 z
EndSpiro
EndSplineSet
        Fore
        SplineSet
122 0 m 0
-2 0 l 0
-2 720 l 0
-2 720 l 0
210 720 l 0
238 720 267 719 295 711 c 0
323 704 349 690 370 669 c 0
390 649 404 623 412 595 c 0
420 567 423 538 423 510 c 0
423 481 420 452 412 424 c 0
404 396 390 370 370 350 c 0
349 329 323 315 295 308 c 0
267 300 238 299 210 300 c 0
-2 300 l 0
-2 420 l 0
210 420 l 0
222 420 234 420 246 423 c 0
257 426 268 433 276 442 c 0
284 451 290 462 293 473 c 0
296 485 297 497 297 510 c 0
297 522 296 534 293 546 c 0
290 557 284 569 276 577 c 0
268 586 257 593 246 596 c 0
234 599 222 600 210 600 c 0
122 600 l 0
122 0 l 0
Z
Spiro
122 0 v
-2 0 v
-2 720 v
-2 720 v
210 720 ]
423 510 c
210 300 [
-2 300 v
-2 420 v
210 420 ]
297 510 c
210 600 [
122 600 v
0 0 z
EndSpiro
EndSplineSet
        EndChar
StartChar: Q
Encoding: 81 81 0
Width: 526
InSpiro: 1
        Flags: H
        LayerCount: 2
        Back
        SplineSet
284 214 m 0
289 214 l 0
364 60 l 0
359 60 l 0
284 214 l 0
Z
64 362 m 0
64 300 65 237 84 179 c 0
93 150 108 122 129 100 c 0
151 78 181 63 212 64 c 0
242 64 271 78 293 100 c 0
315 122 329 150 339 179 c 0
357 237 359 299 359 361 c 0
358 422 357 485 339 544 c 0
329 573 315 601 293 623 c 0
271 645 241 660 211 660 c 0
180 659 150 644 129 623 c 0
107 601 92 573 83 544 c 0
64 485 63 423 64 362 c 0
Z
212 664 m 0
243 664 273 649 295 627 c 0
317 605 332 577 342 547 c 0
362 488 364 424 364 362 c 0
363 299 362 235 342 176 c 0
332 146 317 118 294 96 c 0
272 74 242 59 211 60 c 0
179 60 150 75 127 96 c 0
105 118 90 147 81 176 c 0
61 235 60 298 60 361 c 0
60 423 61 487 81 546 c 0
90 576 106 604 128 626 c 0
150 648 180 663 212 664 c 0
Z
Spiro
284 214 v
289 214 v
364 60 v
359 60 v
64 362 o
212 64 c
359 361 o
211 660 c
212 664 c
364 362 o
211 60 c
60 361 o
0 0 z
EndSpiro
EndSplineSet
        Fore
        SplineSet
222 270 m 0
347 270 l 0
422 0 l 0
297 0 l 0
222 270 l 0
Z
123 360 m 0
123 312 117 265 124 218 c 0
128 194 135 171 149 152 c 0
156 143 165 135 176 129 c 0
186 123 198 120 210 120 c 0
221 119 233 123 243 129 c 0
254 134 262 143 270 152 c 0
284 171 291 194 295 217 c 0
302 264 297 311 297 359 c 0
296 406 302 454 295 501 c 0
291 525 284 548 269 567 c 0
262 576 253 585 243 590 c 0
232 596 220 600 209 600 c 0
197 599 185 596 175 590 c 0
165 584 156 576 149 567 c 0
134 548 127 524 124 501 c 0
117 454 122 407 123 360 c 0
Z
210 720 m 0
248 720 286 703 315 679 c 0
345 654 367 621 383 586 c 0
414 515 423 437 423 360 c 0
422 282 414 203 382 133 c 0
367 98 344 65 315 40 c 0
285 15 247 0 209 0 c 0
170 0 133 16 103 41 c 0
74 65 52 98 36 133 c 0
5 203 -2 282 -3 359 c 0
-3 436 5 515 36 585 c 0
52 621 74 654 104 678 c 0
133 703 171 719 210 720 c 0
Z
Spiro
222 270 v
347 270 v
422 0 v
297 0 v
123 360 o
210 120 c
297 359 o
209 600 c
210 720 c
423 360 o
209 0 c
-3 359 o
0 0 z
EndSpiro
EndSplineSet
        EndChar
StartChar: S
Encoding: 83 83 0
Width: 526
InSpiro: 1
        Flags: H
        LayerCount: 2
        Back
        SplineSet
364 560 m 0
359 560 l 0
348 590 328 616 302 634 c 0
275 652 243 661 212 660 c 0
173 658 136 641 109 613 c 0
83 586 66 549 64 511 c 0
62 488 65 466 73 445 c 0
81 424 94 406 113 393 c 0
141 372 177 367 212 362 c 0
247 358 284 353 313 333 c 0
331 319 346 300 354 278 c 0
363 257 365 233 364 211 c 0
360 172 343 134 316 106 c 0
288 79 250 61 212 60 c 0
179 58 145 67 118 86 c 0
91 105 70 132 60 164 c 0
64 164 l 0
74 133 94 106 120 88 c 0
146 70 179 61 211 63 c 0
249 64 286 81 313 109 c 0
339 136 356 173 359 212 c 0
360 234 357 256 349 277 c 0
341 298 328 316 310 330 c 0
281 350 244 355 210 360 c 0
175 364 138 369 110 390 c 0
91 403 77 422 68 444 c 0
60 465 57 489 60 512 c 0
63 550 80 588 107 615 c 0
134 643 172 660 211 663 c 0
243 664 277 655 304 637 c 0
332 618 353 591 364 560 c 0
Z
Spiro
364 560 v
359 560 v
212 660 c
64 511 c
113 393 c
313 333 c
364 211 c
212 60 c
60 164 v
64 164 v
211 63 c
359 212 c
310 330 c
110 390 c
60 512 c
211 663 c
0 0 z
EndSpiro
EndSplineSet
        Fore
        SplineSet
422 500 m 0
297 500 l 0
301 524 294 550 278 569 c 0
262 588 237 600 213 600 c 0
188 599 164 588 148 571 c 0
131 553 122 529 122 505 c 0
121 480 129 455 146 438 c 0
157 424 173 415 190 409 c 0
207 404 224 401 242 399 c 0
277 395 314 393 346 378 c 0
375 362 398 335 411 304 c 0
423 272 426 238 422 205 c 0
415 152 391 101 354 64 c 0
317 26 265 2 213 0 c 0
155 -2 96 19 55 61 c 0
15 102 -6 162 -2 220 c 0
122 220 l 0
117 195 124 168 140 149 c 0
156 130 180 118 206 119 c 0
230 119 254 130 270 147 c 0
287 165 296 189 297 214 c 0
297 238 289 263 273 281 c 0
261 294 245 303 228 308 c 0
211 314 194 317 176 319 c 0
141 323 104 324 73 341 c 0
43 356 20 383 8 415 c 0
-3 446 -6 480 -2 514 c 0
4 566 28 616 65 654 c 0
102 691 153 715 206 719 c 0
263 722 322 699 363 658 c 0
404 617 426 557 422 500 c 0
Z
Spiro
422 500 v
297 500 v
213 600 c
122 505 c
146 438 c
346 378 c
422 205 c
213 0 c
-2 220 v
122 220 v
206 119 c
297 214 c
273 281 c
73 341 c
-2 514 c
206 719 c
0 0 z
EndSpiro
EndSplineSet
        EndChar
StartChar: U
Encoding: 85 85 0
Width: 526
InSpiro: 1
        Flags: H
        LayerCount: 2
        Back
        SplineSet
60 664 m 0
64 664 l 0
64 362 l 0
64 300 62 237 81 178 c 0
91 148 106 120 128 99 c 0
151 78 181 63 212 64 c 0
242 64 272 78 294 99 c 0
316 121 331 149 341 178 c 0
360 237 358 300 359 362 c 0
359 664 l 0
364 664 l 0
364 362 l 0
364 299 365 235 345 175 c 0
335 145 319 117 296 95 c 0
273 74 243 60 212 60 c 0
180 60 150 74 127 95 c 0
104 117 88 145 78 175 c 0
58 234 60 299 60 362 c 0
60 664 l 0
Z
Spiro
60 664 v
64 664 v
64 362 ]
212 64 c
359 362 [
359 664 v
364 664 v
364 362 ]
212 60 c
60 362 [
0 0 z
EndSpiro
EndSplineSet
        Fore
        SplineSet
-2 720 m 0
122 720 l 0
123 360 l 0
123 312 119 265 126 218 c 0
129 195 136 172 150 153 c 0
157 143 166 135 176 129 c 0
186 123 198 120 210 120 c 0
221 119 233 123 243 129 c 0
253 135 262 143 269 153 c 0
283 172 290 195 293 218 c 0
300 265 296 312 297 360 c 0
297 720 l 0
422 720 l 0
423 360 l 0
423 281 421 201 389 129 c 0
373 94 349 61 318 38 c 0
287 14 249 0 210 0 c 0
170 0 132 14 101 38 c 0
70 61 46 94 30 129 c 0
-1 201 -3 281 -3 360 c 0
-2 720 l 0
Z
Spiro
-2 720 v
122 720 v
123 360 ]
210 120 c
297 360 [
297 720 v
422 720 v
423 360 ]
210 0 c
-3 360 [
0 0 z
EndSpiro
EndSplineSet
        EndChar
StartChar: W
Encoding: 87 87 0
Width: 826
InSpiro: 1
        Flags: H
        LayerCount: 2
        Back
        SplineSet
60 664 m 0
64 664 l 0
212 70 l 0
359 664 l 0
364 664 l 0
512 70 l 0
659 664 l 0
664 664 l 0
514 60 l 0
509 60 l 0
362 653 l 0
214 60 l 0
209 60 l 0
60 664 l 0
Z
Spiro
60 664 v
64 664 v
212 70 v
359 664 v
364 664 v
512 70 v
659 664 v
664 664 v
514 60 v
509 60 v
362 653 v
214 60 v
209 60 v
0 0 z
EndSpiro
EndSplineSet
        Fore
        SplineSet
-2 720 m 0
122 720 l 0
210 307 l 0
297 720 l 0
422 720 l 0
510 307 l 0
597 720 l 0
722 720 l 0
572 0 l 0
447 0 l 0
360 412 l 0
272 0 l 0
147 0 l 0
-2 720 l 0
Z
Spiro
-2 720 v
122 720 v
210 307 v
297 720 v
422 720 v
510 307 v
597 720 v
722 720 v
572 0 v
447 0 v
360 412 v
272 0 v
147 0 v
0 0 z
EndSpiro
EndSplineSet
        EndChar
StartChar: X
Encoding: 88 88 0
Width: 526
InSpiro: 1
        Flags: H
        LayerCount: 2
        Back
        SplineSet
60 664 m 0
64 664 l 0
364 60 l 0
359 60 l 0
60 664 l 0
Z
359 664 m 0
364 664 l 0
64 60 l 0
60 60 l 0
359 664 l 0
Z
Spiro
60 664 v
64 664 v
364 60 v
359 60 v
359 664 v
364 664 v
64 60 v
60 60 v
0 0 z
EndSpiro
EndSplineSet
        Fore
        SplineSet
-2 720 m 0
122 720 l 0
422 0 l 0
297 0 l 0
-2 720 l 0
Z
297 720 m 0
422 720 l 0
122 0 l 0
-2 0 l 0
297 720 l 0
Z
Spiro
-2 720 v
122 720 v
422 0 v
297 0 v
297 720 v
422 720 v
122 0 v
-2 0 v
0 0 z
EndSpiro
EndSplineSet
        EndChar
StartChar: Z
Encoding: 90 90 0
Width: 526
InSpiro: 1
        Flags: H
        LayerCount: 2
        Back
        SplineSet
60 660 m 0
60 664 l 0
364 664 l 0
364 664 l 0
65 64 l 0
364 64 l 0
364 60 l 0
60 60 l 0
60 60 l 0
358 660 l 0
60 660 l 0
Z
Spiro
60 660 v
60 664 v
364 664 v
364 664 v
65 64 v
364 64 v
364 60 v
60 60 v
60 60 v
358 660 v
0 0 z
EndSpiro
EndSplineSet
        Fore
        SplineSet
-2 600 m 0
-2 720 l 0
422 720 l 0
422 720 l 0
159 120 l 0
422 120 l 0
422 0 l 0
-2 0 l 0
-2 0 l 0
260 600 l 0
-2 600 l 0
Z
Spiro
-2 600 v
-2 720 v
422 720 v
422 720 v
159 120 v
422 120 v
422 0 v
-2 0 v
-2 0 v
260 600 v
0 0 z
EndSpiro
EndSplineSet
        EndChar
StartChar: a
Encoding: 97 97 0
Width: 526
InSpiro: 1
        Flags: H
        LayerCount: 2
        Back
        SplineSet
359 464 m 0
364 464 l 0
364 60 l 0
359 60 l 0
359 464 l 0
Z
364 360 m 0
359 360 l 0
350 391 330 418 303 437 c 0
277 455 244 463 212 460 c 0
167 455 126 427 100 390 c 0
75 352 64 307 64 262 c 0
63 216 74 170 100 133 c 0
126 95 166 67 212 63 c 0
244 59 277 67 304 86 c 0
330 104 350 132 359 164 c 0
364 164 l 0
355 131 334 102 306 83 c 0
279 64 244 56 211 60 c 0
165 65 123 93 97 131 c 0
71 169 59 215 60 262 c 0
60 307 71 354 97 392 c 0
124 429 165 457 211 463 c 0
244 466 278 458 306 439 c 0
334 421 355 392 364 360 c 0
Z
Spiro
359 464 v
364 464 v
364 60 v
359 60 v
364 360 v
359 360 v
212 460 c
64 262 c
212 63 c
359 164 v
364 164 v
211 60 c
60 262 c
211 463 c
0 0 z
EndSpiro
EndSplineSet
        Fore
        SplineSet
297 520 m 0
422 520 l 0
422 0 l 0
297 0 l 0
297 520 l 0
Z
422 300 m 0
297 300 l 0
304 324 299 351 283 371 c 0
267 390 242 401 217 400 c 0
201 398 186 392 174 383 c 0
161 374 151 362 143 349 c 0
127 322 123 290 123 260 c 0
122 228 127 196 143 169 c 0
150 156 161 144 173 135 c 0
186 126 201 120 217 119 c 0
242 117 268 128 283 148 c 0
299 168 304 195 297 220 c 0
422 220 l 0
428 160 406 99 364 57 c 0
322 15 261 -6 202 0 c 0
141 6 86 41 50 89 c 0
14 138 -3 199 -3 260 c 0
-2 320 14 381 50 429 c 0
86 477 142 512 202 519 c 0
260 525 322 504 364 462 c 0
406 420 428 358 422 300 c 0
Z
Spiro
297 520 v
422 520 v
422 0 v
297 0 v
422 300 v
297 300 v
217 400 c
123 260 c
217 119 c
297 220 v
422 220 v
202 0 c
-3 260 c
202 519 c
0 0 z
EndSpiro
EndSplineSet
        EndChar
StartChar: c
Encoding: 99 99 0
Width: 526
InSpiro: 1
        Flags: H
        LayerCount: 2
        Back
        SplineSet
364 362 m 0
359 362 l 0
350 392 329 420 303 437 c 0
276 455 243 463 212 460 c 0
167 454 126 427 100 390 c 0
75 352 64 307 64 262 c 0
63 216 75 170 100 133 c 0
126 95 166 67 212 63 c 0
243 59 277 67 303 85 c 0
330 103 350 131 359 162 c 0
364 162 l 0
354 129 333 101 306 82 c 0
278 64 244 56 211 60 c 0
165 65 123 93 97 131 c 0
71 169 59 215 60 262 c 0
60 307 71 354 98 391 c 0
124 429 165 457 211 463 c 0
243 466 278 458 305 440 c 0
333 422 354 393 364 362 c 0
Z
Spiro
364 362 v
359 362 v
212 460 c
64 262 c
212 63 c
359 162 v
364 162 v
211 60 c
60 262 c
211 463 c
0 0 z
EndSpiro
EndSplineSet
        Fore
        SplineSet
422 480 m 0
422 360 l 0
396 385 364 403 328 411 c 0
293 418 256 414 223 401 c 0
194 389 169 370 151 345 c 0
133 320 123 290 123 260 c 0
122 229 133 198 151 173 c 0
169 149 194 129 223 118 c 0
256 104 293 100 329 108 c 0
364 115 397 133 422 160 c 0
422 39 l 0
356 -5 272 -19 196 1 c 0
139 16 88 50 52 96 c 0
16 143 -3 201 -3 260 c 0
-2 318 17 376 52 422 c 0
88 468 139 502 196 518 c 0
272 538 356 524 422 480 c 0
Z
Spiro
422 480 v
422 360 v
223 401 c
123 260 c
223 118 c
422 160 v
422 39 v
196 1 c
-3 260 c
196 518 c
0 0 z
EndSpiro
EndSplineSet
        EndChar
StartChar: e
Encoding: 101 101 0
Width: 526
InSpiro: 1
        Flags: H
        LayerCount: 2
        Back
        SplineSet
61 260 m 0
61 264 l 0
359 264 l 0
369 295 370 329 360 361 c 0
349 391 329 418 303 436 c 0
276 454 243 463 212 460 c 0
189 457 167 449 148 437 c 0
129 425 113 409 100 390 c 0
75 353 63 307 64 262 c 0
64 216 75 170 100 133 c 0
126 95 167 68 212 63 c 0
243 59 277 67 303 85 c 0
330 103 350 131 359 162 c 0
364 162 l 0
354 129 334 101 306 82 c 0
278 64 244 56 211 60 c 0
165 65 124 93 98 131 c 0
72 168 60 215 60 261 c 0
59 307 70 354 96 392 c 0
110 411 126 427 146 440 c 0
165 452 188 460 211 463 c 0
243 466 277 457 304 438 c 0
331 420 352 392 363 362 c 0
374 329 374 292 364 260 c 0
364 260 l 0
61 260 l 0
Z
Spiro
61 260 v
61 264 v
359 264 v
360 361 c
212 460 c
64 262 c
212 63 c
359 162 v
364 162 v
211 60 c
60 261 c
211 463 c
363 362 c
364 260 v
364 260 v
0 0 z
EndSpiro
EndSplineSet
        Fore
        SplineSet
57 200 m 0
57 320 l 0
297 320 l 0
299 326 300 333 300 340 c 0
299 349 296 359 291 367 c 0
286 376 279 383 271 388 c 0
254 399 234 402 215 400 c 0
184 395 157 375 141 349 c 0
125 323 119 292 122 262 c 0
124 231 135 201 152 176 c 0
170 151 194 130 223 118 c 0
256 103 293 98 329 106 c 0
364 113 397 132 422 160 c 0
422 39 l 0
357 -6 271 -21 196 1 c 0
140 17 91 51 56 97 c 0
21 143 1 199 -2 257 c 0
-5 318 11 381 48 430 c 0
84 480 142 514 204 519 c 0
249 522 295 509 333 483 c 0
371 458 401 421 419 379 c 0
442 322 443 257 422 200 c 0
422 200 l 0
57 200 l 0
Z
Spiro
57 200 v
57 320 v
297 320 v
300 340 c
215 400 c
122 262 c
223 118 c
422 160 v
422 39 v
196 1 c
-2 257 c
204 519 c
419 379 c
422 200 v
422 200 v
0 0 z
EndSpiro
EndSplineSet
        EndChar
StartChar: f
Encoding: 102 102 0
Width: 376
InSpiro: 1
        Flags: H
        LayerCount: 2
        Back
        SplineSet
214 664 m 0
214 660 l 0
190 661 166 656 145 645 c 0
124 635 106 618 93 598 c 0
80 578 72 556 68 532 c 0
64 509 63 485 64 462 c 0
64 60 l 0
60 60 l 0
60 462 l 0
60 486 60 510 64 534 c 0
68 558 76 581 90 601 c 0
103 622 121 639 143 649 c 0
165 660 189 665 214 664 c 0
Z
60 460 m 0
60 464 l 0
214 464 l 0
214 460 l 0
60 460 l 0
Z
Spiro
214 664 v
214 660 v
64 462 [
64 60 v
60 60 v
60 462 ]
60 460 v
60 464 v
214 464 v
214 460 v
0 0 z
EndSpiro
EndSplineSet
        Fore
        SplineSet
272 720 m 0
272 600 l 0
253 610 231 613 210 610 c 0
189 606 170 595 156 579 c 0
141 563 132 543 127 523 c 0
123 502 123 481 123 460 c 0
122 0 l 0
-2 0 l 0
-3 460 l 0
-3 499 -2 538 5 577 c 0
14 615 31 652 57 681 c 0
83 710 119 731 158 738 c 0
196 745 237 739 272 720 c 0
Z
-2 400 m 0
-2 520 l 0
272 520 l 0
272 400 l 0
-2 400 l 0
Z
Spiro
272 720 v
272 600 v
123 460 [
122 0 v
-2 0 v
-3 460 ]
-2 400 v
-2 520 v
272 520 v
272 400 v
0 0 z
EndSpiro
EndSplineSet
        EndChar
StartChar: g
Encoding: 103 103 0
Width: 526
InSpiro: 1
        Flags: H
        LayerCount: 2
        Back
        SplineSet
359 424 m 0
364 424 l 0
364 62 l 0
363 0 363 -62 341 -120 c 0
330 -148 314 -175 292 -197 c 0
270 -218 242 -234 212 -239 c 0
178 -244 143 -236 115 -217 c 0
87 -198 67 -168 60 -136 c 0
64 -136 l 0
70 -167 90 -196 117 -215 c 0
144 -233 178 -241 211 -236 c 0
240 -231 268 -215 290 -194 c 0
311 -173 327 -146 337 -118 c 0
358 -61 358 0 359 61 c 0
359 424 l 0
Z
364 320 m 0
359 320 l 0
349 350 329 377 303 395 c 0
276 413 243 422 212 420 c 0
169 416 130 393 103 360 c 0
77 327 64 284 64 242 c 0
63 199 76 156 103 122 c 0
129 89 169 66 212 63 c 0
244 60 276 69 303 87 c 0
329 105 349 133 359 164 c 0
364 164 l 0
354 132 333 103 305 84 c 0
278 66 244 57 211 60 c 0
168 63 127 86 100 120 c 0
73 154 60 197 60 241 c 0
59 284 73 327 100 361 c 0
127 395 167 419 211 423 c 0
244 425 278 417 305 398 c 0
333 379 354 351 364 320 c 0
Z
Spiro
359 424 v
364 424 v
364 62 ]
212 -239 c
60 -136 v
64 -136 v
211 -236 c
359 61 [
364 320 v
359 320 v
212 420 c
64 242 c
212 63 c
359 164 v
364 164 v
211 60 c
60 241 c
211 423 c
0 0 z
EndSpiro
EndSplineSet
        Fore
        SplineSet
297 480 m 0
422 480 l 0
423 60 l 0
423 -15 420 -93 389 -162 c 0
373 -196 350 -227 321 -252 c 0
292 -276 257 -293 220 -299 c 0
160 -308 96 -287 53 -245 c 0
10 -202 -10 -139 -2 -80 c 0
122 -80 l 0
117 -91 116 -104 118 -117 c 0
119 -129 124 -141 132 -151 c 0
140 -161 150 -169 162 -174 c 0
173 -179 186 -181 199 -180 c 0
222 -177 243 -163 258 -145 c 0
273 -127 282 -104 288 -81 c 0
298 -36 296 11 297 59 c 0
297 480 l 0
Z
422 260 m 0
297 260 l 0
303 284 297 311 281 330 c 0
265 350 240 361 215 360 c 0
201 359 187 354 175 347 c 0
163 340 153 330 145 319 c 0
129 296 122 267 122 240 c 0
121 211 128 183 144 160 c 0
152 148 163 138 175 131 c 0
187 124 200 119 215 119 c 0
240 117 265 128 281 148 c 0
297 168 303 195 297 220 c 0
422 220 l 0
426 161 405 101 363 59 c 0
322 17 262 -4 204 0 c 0
146 4 91 34 54 78 c 0
17 123 -1 181 -2 239 c 0
-2 296 17 355 54 399 c 0
91 444 146 474 204 479 c 0
262 483 322 461 363 419 c 0
404 378 426 318 422 260 c 0
Z
Spiro
297 480 v
422 480 v
423 60 ]
220 -299 c
-2 -80 v
122 -80 v
199 -180 c
297 59 [
422 260 v
297 260 v
215 360 c
122 240 c
215 119 c
297 220 v
422 220 v
204 0 c
-2 239 c
204 479 c
0 0 z
EndSpiro
EndSplineSet
        EndChar
StartChar: h
Encoding: 104 104 0
Width: 526
InSpiro: 1
        Flags: H
        LayerCount: 2
        Back
        SplineSet
64 60 m 0
60 60 l 0
60 664 l 0
64 664 l 0
64 60 l 0
Z
64 360 m 0
60 360 l 0
71 390 92 417 119 435 c 0
146 453 179 463 212 463 c 0
235 462 259 456 280 445 c 0
301 434 319 418 333 398 c 0
346 379 355 356 359 333 c 0
363 309 364 285 364 262 c 0
364 60 l 0
359 60 l 0
359 262 l 0
359 285 358 308 354 331 c 0
350 354 342 376 329 396 c 0
316 415 298 431 278 442 c 0
257 453 234 459 211 460 c 0
179 460 147 451 121 433 c 0
95 415 75 389 64 360 c 0
Z
Spiro
64 60 v
60 60 v
60 664 v
64 664 v
64 360 v
60 360 v
212 463 c
364 262 [
364 60 v
359 60 v
359 262 ]
211 460 c
0 0 z
EndSpiro
EndSplineSet
        Fore
        SplineSet
122 0 m 0
-2 0 l 0
-2 720 l 0
122 720 l 0
122 0 l 0
Z
122 300 m 0
-2 300 l 0
0 355 22 411 61 451 c 0
100 491 155 516 211 519 c 0
242 520 275 515 304 502 c 0
333 489 359 468 378 443 c 0
398 417 410 386 416 355 c 0
422 324 423 291 423 260 c 0
422 0 l 0
297 0 l 0
297 260 l 0
297 275 296 290 294 306 c 0
292 321 288 336 281 349 c 0
273 363 263 375 250 384 c 0
238 393 223 398 208 400 c 0
182 401 156 391 139 371 c 0
123 352 116 324 122 300 c 0
Z
Spiro
122 0 v
-2 0 v
-2 720 v
122 720 v
122 300 v
-2 300 v
211 519 c
423 260 [
422 0 v
297 0 v
297 260 ]
208 400 c
0 0 z
EndSpiro
EndSplineSet
        EndChar
StartChar: i
Encoding: 105 105 0
Width: 226
InSpiro: 1
        Flags: H
        LayerCount: 2
        Back
        SplineSet
60 464 m 0
64 464 l 0
64 60 l 0
60 60 l 0
60 464 l 0
Z
62 555 m 0
63 555 65 555 66 557 c 0
68 558 68 560 69 562 c 0
69 563 68 565 66 566 c 0
65 568 63 569 62 569 c 0
60 568 58 568 57 566 c 0
55 565 55 563 55 562 c 0
54 560 55 558 57 557 c 0
58 555 60 554 62 555 c 0
Z
Spiro
60 464 v
64 464 v
64 60 v
60 60 v
62 555 c
69 562 c
62 569 c
55 562 c
0 0 z
EndSpiro
EndSplineSet
        Fore
        SplineSet
-2 520 m 0
122 520 l 0
122 0 l 0
-2 0 l 0
-2 520 l 0
Z
60 575 m 0
77 575 93 582 105 594 c 0
117 606 124 622 125 640 c 0
125 657 117 673 105 685 c 0
93 697 77 705 60 705 c 0
42 704 26 697 14 685 c 0
2 673 -4 657 -5 640 c 0
-5 622 2 606 14 594 c 0
26 582 42 574 60 575 c 0
Z
Spiro
-2 520 v
122 520 v
122 0 v
-2 0 v
60 575 c
125 640 c
60 705 c
-5 640 c
0 0 z
EndSpiro
EndSplineSet
        EndChar
StartChar: j
Encoding: 106 106 0
Width: 466
InSpiro: 1
        Flags: H
        LayerCount: 2
        Back
        SplineSet
299 464 m 0
304 464 l 0
304 62 l 0
304 6 306 -49 297 -103 c 0
292 -131 284 -158 271 -182 c 0
257 -206 237 -227 212 -239 c 0
195 -246 176 -249 158 -248 c 0
140 -246 122 -240 107 -230 c 0
92 -219 79 -205 71 -189 c 0
63 -172 59 -154 60 -136 c 0
64 -136 l 0
63 -153 66 -171 74 -187 c 0
82 -203 94 -217 109 -227 c 0
124 -237 141 -243 159 -245 c 0
176 -246 194 -243 211 -236 c 0
235 -224 255 -203 268 -179 c 0
281 -156 289 -129 293 -102 c 0
301 -48 298 6 299 61 c 0
299 464 l 0
Z
302 555 m 0
303 555 305 555 306 557 c 0
308 558 308 560 309 562 c 0
309 563 308 565 306 566 c 0
305 568 303 569 302 569 c 0
300 568 298 568 297 566 c 0
295 565 295 563 295 562 c 0
294 560 295 558 297 557 c 0
298 555 300 554 302 555 c 0
Z
Spiro
299 464 v
304 464 v
304 62 ]
212 -239 c
60 -136 v
64 -136 v
211 -236 c
299 61 [
302 555 c
309 562 c
302 569 c
295 562 c
0 0 z
EndSpiro
EndSplineSet
        Fore
        SplineSet
237 520 m 0
362 520 l 0
363 60 l 0
363 -6 363 -73 347 -137 c 0
339 -169 326 -200 308 -227 c 0
289 -255 265 -278 236 -294 c 0
205 -309 169 -316 135 -311 c 0
101 -307 68 -292 42 -269 c 0
17 -246 -1 -215 -9 -181 c 0
-17 -148 -14 -112 -2 -80 c 0
122 -80 l 0
111 -89 103 -102 101 -116 c 0
99 -130 101 -145 109 -157 c 0
116 -170 127 -179 141 -184 c 0
154 -189 169 -189 183 -185 c 0
193 -181 202 -174 210 -166 c 0
218 -158 223 -149 228 -138 c 0
236 -118 239 -96 240 -73 c 0
241 -29 236 14 237 59 c 0
237 520 l 0
Z
300 575 m 0
317 575 333 582 345 594 c 0
357 606 364 622 365 640 c 0
365 657 357 673 345 685 c 0
333 697 317 705 300 705 c 0
282 704 266 697 254 685 c 0
242 673 235 657 235 640 c 0
234 622 242 606 254 594 c 0
266 582 282 574 300 575 c 0
Z
Spiro
237 520 v
362 520 v
363 60 ]
236 -294 c
-2 -80 v
122 -80 v
183 -185 c
237 59 [
300 575 c
365 640 c
300 705 c
235 640 c
0 0 z
EndSpiro
EndSplineSet
        EndChar
StartChar: k
Encoding: 107 107 0
Width: 466
InSpiro: 1
        Flags: H
        LayerCount: 2
        Back
        SplineSet
60 664 m 0
64 664 l 0
64 60 l 0
60 60 l 0
60 664 l 0
Z
304 424 m 0
304 420 l 0
65 242 l 0
304 64 l 0
304 60 l 0
60 240 l 0
60 244 l 0
304 424 l 0
Z
Spiro
60 664 v
64 664 v
64 60 v
60 60 v
304 424 v
304 420 v
65 242 v
304 64 v
304 60 v
60 240 v
60 244 v
0 0 z
EndSpiro
EndSplineSet
        Fore
        SplineSet
-2 720 m 0
122 720 l 0
122 0 l 0
-2 0 l 0
-2 720 l 0
Z
362 480 m 0
362 360 l 0
163 240 l 0
362 120 l 0
362 0 l 0
-2 180 l 0
-2 300 l 0
362 480 l 0
Z
Spiro
-2 720 v
122 720 v
122 0 v
-2 0 v
362 480 v
362 360 v
163 240 v
362 120 v
362 0 v
-2 180 v
-2 300 v
0 0 z
EndSpiro
EndSplineSet
        EndChar
StartChar: l
Encoding: 108 108 0
Width: 376
InSpiro: 1
        Flags: H
        LayerCount: 2
        Back
        SplineSet
60 664 m 0
64 664 l 0
64 242 l 0
64 219 64 196 68 174 c 0
72 151 80 130 94 111 c 0
107 93 126 78 147 70 c 0
168 61 191 59 214 64 c 0
214 60 l 0
191 55 167 57 145 65 c 0
123 74 104 89 91 108 c 0
77 127 68 149 64 172 c 0
60 195 59 218 60 242 c 0
60 664 l 0
Z
Spiro
60 664 v
64 664 v
64 242 ]
214 64 v
214 60 v
60 242 [
0 0 z
EndSpiro
EndSplineSet
        Fore
        SplineSet
-2 720 m 0
122 720 l 0
123 240 l 0
123 219 123 198 128 177 c 0
133 157 143 138 158 124 c 0
173 109 193 100 214 99 c 0
235 98 256 106 272 120 c 0
272 0 l 0
240 -22 200 -32 161 -28 c 0
123 -24 86 -5 59 22 c 0
32 50 14 86 6 124 c 0
-2 161 -3 201 -3 240 c 0
-2 720 l 0
Z
Spiro
-2 720 v
122 720 v
123 240 ]
272 120 v
272 0 v
-3 240 [
0 0 z
EndSpiro
EndSplineSet
        EndChar
StartChar: m
Encoding: 109 109 0
Width: 706
InSpiro: 1
        Flags: H
        LayerCount: 2
        Back
        SplineSet
60 424 m 0
64 424 l 0
64 60 l 0
60 60 l 0
60 424 l 0
Z
64 60 m 0
60 60 l 0
60 322 l 0
62 356 81 390 111 409 c 0
140 429 178 434 212 423 c 0
229 417 245 407 258 394 c 0
271 381 281 366 288 349 c 0
302 315 304 278 304 242 c 0
304 60 l 0
299 60 l 0
299 242 l 0
299 277 297 314 284 346 c 0
277 363 267 378 255 391 c 0
243 404 227 414 211 420 c 0
178 431 141 426 112 407 c 0
84 388 65 355 64 321 c 0
64 60 l 0
Z
304 60 m 0
299 60 l 0
299 272 l 0
299 293 299 315 304 336 c 0
308 357 318 377 333 394 c 0
347 410 366 421 388 426 c 0
409 431 431 430 452 423 c 0
486 410 513 382 528 349 c 0
542 315 544 278 544 242 c 0
544 60 l 0
539 60 l 0
539 242 l 0
538 277 537 314 524 346 c 0
517 363 507 378 495 391 c 0
482 404 467 414 451 420 c 0
431 427 409 428 389 423 c 0
368 417 350 406 336 390 c 0
322 374 313 355 308 334 c 0
304 314 303 292 304 272 c 0
304 60 l 0
Z
Spiro
60 424 v
64 424 v
64 60 v
60 60 v
64 60 v
60 60 v
60 322 v
212 423 c
304 242 [
304 60 v
299 60 v
299 242 ]
211 420 c
64 321 v
304 60 v
299 60 v
299 272 ]
452 423 c
544 242 [
544 60 v
539 60 v
539 242 ]
451 420 c
304 272 [
0 0 z
EndSpiro
EndSplineSet
        Fore
        SplineSet
-2 480 m 0
122 480 l 0
122 0 l 0
-2 0 l 0
-2 480 l 0
Z
122 0 m 0
-2 0 l 0
-2 321 l 0
3 373 33 423 77 453 c 0
121 482 179 491 230 476 c 0
276 461 317 427 338 383 c 0
349 361 356 337 359 313 c 0
363 289 363 264 363 240 c 0
362 0 l 0
237 0 l 0
237 240 l 0
236 263 237 287 231 310 c 0
228 321 223 332 216 341 c 0
209 351 200 359 189 363 c 0
174 368 157 365 144 357 c 0
131 348 122 333 122 318 c 0
122 0 l 0
Z
362 0 m 0
237 0 l 0
237 270 l 0
237 301 237 333 245 364 c 0
253 395 269 424 292 446 c 0
315 468 345 482 377 487 c 0
408 491 441 487 471 476 c 0
516 458 555 425 578 382 c 0
589 360 596 336 599 312 c 0
603 288 603 264 603 240 c 0
602 0 l 0
477 0 l 0
477 240 l 0
476 263 477 288 472 311 c 0
469 323 464 334 457 343 c 0
450 353 439 360 428 363 c 0
417 365 405 362 396 357 c 0
386 351 379 343 374 333 c 0
369 324 366 313 364 302 c 0
363 291 363 280 363 270 c 0
362 0 l 0
Z
Spiro
-2 480 v
122 480 v
122 0 v
-2 0 v
122 0 v
-2 0 v
-2 321 v
230 476 c
363 240 [
362 0 v
237 0 v
237 240 ]
189 363 c
122 318 v
362 0 v
237 0 v
237 270 ]
471 476 c
603 240 [
602 0 v
477 0 v
477 240 ]
428 363 c
363 270 [
0 0 z
EndSpiro
EndSplineSet
        EndChar
StartChar: n
Encoding: 110 110 0
Width: 466
InSpiro: 1
        Flags: H
        LayerCount: 2
        Back
        SplineSet
60 424 m 0
64 424 l 0
64 60 l 0
60 60 l 0
60 424 l 0
Z
64 60 m 0
60 60 l 0
60 322 l 0
62 356 81 390 111 409 c 0
140 429 178 434 212 423 c 0
229 417 245 407 258 394 c 0
271 381 281 366 288 349 c 0
302 315 304 278 304 242 c 0
304 60 l 0
299 60 l 0
299 242 l 0
299 277 297 314 284 346 c 0
277 363 267 378 255 391 c 0
243 404 227 414 211 420 c 0
178 431 141 426 112 407 c 0
84 388 65 355 64 321 c 0
64 60 l 0
Z
Spiro
60 424 v
64 424 v
64 60 v
60 60 v
64 60 v
60 60 v
60 322 v
212 423 c
304 242 [
304 60 v
299 60 v
299 242 ]
211 420 c
64 321 v
0 0 z
EndSpiro
EndSplineSet
        Fore
        SplineSet
-2 480 m 0
122 480 l 0
122 0 l 0
-2 0 l 0
-2 480 l 0
Z
122 0 m 0
-2 0 l 0
-2 321 l 0
3 373 33 423 77 453 c 0
121 482 179 491 230 476 c 0
276 461 317 427 338 383 c 0
349 361 356 337 359 313 c 0
363 289 363 264 363 240 c 0
362 0 l 0
237 0 l 0
237 240 l 0
236 263 237 287 231 310 c 0
228 321 223 332 216 341 c 0
209 351 200 359 189 363 c 0
174 368 157 365 144 357 c 0
131 348 122 333 122 318 c 0
122 0 l 0
Z
Spiro
-2 480 v
122 480 v
122 0 v
-2 0 v
122 0 v
-2 0 v
-2 321 v
230 476 c
363 240 [
362 0 v
237 0 v
237 240 ]
189 363 c
122 318 v
0 0 z
EndSpiro
EndSplineSet
        EndChar
StartChar: o
Encoding: 111 111 0
Width: 526
InSpiro: 1
        Flags: H
        LayerCount: 2
        Back
        SplineSet
211 420 m 0
189 419 168 414 149 403 c 0
130 393 114 379 101 362 c 0
75 328 64 284 64 242 c 0
63 198 75 155 101 120 c 0
114 103 131 89 150 78 c 0
169 68 190 62 212 63 c 0
233 63 254 68 273 79 c 0
292 89 308 103 321 120 c 0
347 154 358 198 359 241 c 0
359 284 347 327 321 362 c 0
308 379 291 393 272 404 c 0
253 414 232 420 211 420 c 0
Z
364 242 m 0
364 197 351 153 324 118 c 0
311 100 294 86 274 75 c 0
255 65 233 59 211 60 c 0
189 60 167 66 148 76 c 0
129 86 112 101 99 118 c 0
72 153 60 197 60 241 c 0
59 284 72 329 99 364 c 0
112 381 129 396 148 406 c 0
168 417 190 423 212 423 c 0
233 422 255 417 275 406 c 0
294 396 311 382 324 364 c 0
351 330 363 285 364 242 c 0
Z
Spiro
211 420 c
64 242 c
212 63 c
359 241 c
364 242 c
211 60 c
60 241 c
212 423 c
0 0 z
EndSpiro
EndSplineSet
        Fore
        SplineSet
209 360 m 0
195 359 181 355 170 348 c 0
158 340 148 330 141 318 c 0
127 295 122 267 122 240 c 0
121 212 126 183 141 160 c 0
148 148 158 137 170 130 c 0
182 123 196 118 210 119 c 0
223 119 237 123 248 130 c 0
260 138 270 148 277 160 c 0
291 183 296 211 297 239 c 0
297 266 292 295 277 318 c 0
270 330 260 341 248 348 c 0
236 355 222 360 209 360 c 0
Z
422 240 m 0
422 180 402 120 364 74 c 0
326 29 268 0 209 0 c 0
150 0 92 29 54 75 c 0
17 120 -1 180 -2 239 c 0
-2 298 16 358 54 403 c 0
93 449 150 479 210 479 c 0
269 478 326 449 364 404 c 0
402 358 421 299 422 240 c 0
Z
Spiro
209 360 c
122 240 c
210 119 c
297 239 c
422 240 c
209 0 c
-2 239 c
210 479 c
0 0 z
EndSpiro
EndSplineSet
        EndChar
StartChar: p
Encoding: 112 112 0
Width: 526
InSpiro: 1
        Flags: H
        LayerCount: 2
        Back
        SplineSet
60 424 m 0
64 424 l 0
64 -240 l 0
60 -240 l 0
60 424 l 0
Z
64 320 m 0
60 320 l 0
69 351 90 379 117 398 c 0
145 416 179 425 212 423 c 0
255 419 296 396 323 362 c 0
350 328 364 284 364 241 c 0
363 197 350 154 322 120 c 0
295 86 255 63 212 60 c 0
178 57 145 66 117 85 c 0
90 103 69 132 60 164 c 0
64 164 l 0
73 133 93 105 119 87 c 0
146 69 178 60 211 63 c 0
253 66 293 89 319 122 c 0
346 156 359 199 359 242 c 0
358 284 345 327 319 360 c 0
292 393 253 416 211 420 c 0
179 422 146 413 119 395 c 0
93 377 73 350 64 320 c 0
Z
Spiro
60 424 v
64 424 v
64 -240 v
60 -240 v
64 320 v
60 320 v
212 423 c
364 241 c
212 60 c
60 164 v
64 164 v
211 63 c
359 242 c
211 420 c
0 0 z
EndSpiro
EndSplineSet
        Fore
        SplineSet
-2 480 m 0
122 480 l 0
122 -300 l 0
-2 -300 l 0
-2 480 l 0
Z
122 260 m 0
-2 260 l 0
-6 318 15 377 56 419 c 0
97 460 156 483 215 479 c 0
272 474 328 444 365 400 c 0
402 355 422 297 422 239 c 0
421 181 402 122 365 78 c 0
327 33 272 4 215 0 c 0
156 -4 96 18 55 60 c 0
14 101 -6 161 -2 220 c 0
122 220 l 0
115 195 121 168 137 148 c 0
153 128 178 117 204 119 c 0
218 119 231 124 243 131 c 0
255 138 266 148 274 160 c 0
290 183 297 211 297 240 c 0
296 267 289 296 273 319 c 0
265 330 255 340 243 347 c 0
231 354 217 359 204 360 c 0
178 361 153 350 137 330 c 0
121 311 115 284 122 260 c 0
Z
Spiro
-2 480 v
122 480 v
122 -300 v
-2 -300 v
122 260 v
-2 260 v
215 479 c
422 239 c
215 0 c
-2 220 v
122 220 v
204 119 c
297 240 c
204 360 c
0 0 z
EndSpiro
EndSplineSet
        EndChar
StartChar: r
Encoding: 114 114 0
Width: 466
InSpiro: 1
        Flags: H
        LayerCount: 2
        Back
        SplineSet
64 60 m 0
60 60 l 0
60 464 l 0
64 464 l 0
64 60 l 0
Z
64 410 m 0
60 410 l 0
76 433 100 452 127 461 c 0
154 471 184 471 212 463 c 0
235 455 256 442 272 424 c 0
288 406 299 383 304 360 c 0
299 360 l 0
294 382 284 404 268 422 c 0
253 439 233 452 211 460 c 0
184 468 155 468 129 459 c 0
102 450 79 432 64 410 c 0
Z
Spiro
64 60 v
60 60 v
60 464 v
64 464 v
64 410 v
60 410 v
212 463 c
304 360 v
299 360 v
211 460 c
0 0 z
EndSpiro
EndSplineSet
        Fore
        SplineSet
122 0 m 0
-2 0 l 0
-2 520 l 0
122 520 l 0
122 0 l 0
Z
122 350 m 0
-2 350 l 0
1 404 29 456 73 488 c 0
117 520 176 530 229 517 c 0
274 505 314 475 338 435 c 0
363 395 371 345 362 300 c 0
237 300 l 0
243 309 247 320 249 331 c 0
250 342 248 354 243 364 c 0
238 375 231 384 221 390 c 0
212 397 201 401 190 402 c 0
174 403 158 398 146 388 c 0
133 379 124 365 122 350 c 0
Z
Spiro
122 0 v
-2 0 v
-2 520 v
122 520 v
122 350 v
-2 350 v
229 517 c
362 300 v
237 300 v
190 402 c
0 0 z
EndSpiro
EndSplineSet
        EndChar
StartChar: s
Encoding: 115 115 0
Width: 526
InSpiro: 1
        Flags: H
        LayerCount: 2
        Back
        SplineSet
364 322 m 0
359 322 l 0
338 354 308 380 273 398 c 0
239 415 200 422 162 420 c 0
137 418 112 411 92 396 c 0
83 388 74 379 69 368 c 0
64 356 62 344 64 332 c 0
66 316 74 303 85 292 c 0
96 282 110 274 124 268 c 0
152 256 182 250 212 243 c 0
242 235 273 229 301 216 c 0
316 210 330 202 341 192 c 0
352 181 361 167 364 152 c 0
366 139 363 125 358 114 c 0
353 102 344 92 334 84 c 0
313 68 287 61 262 60 c 0
222 57 182 65 146 83 c 0
111 101 81 128 60 162 c 0
64 162 l 0
84 129 114 102 148 85 c 0
183 67 222 60 261 63 c 0
285 64 310 71 330 86 c 0
339 94 348 103 353 114 c 0
358 126 360 138 359 151 c 0
356 166 348 179 337 190 c 0
326 200 312 208 298 214 c 0
270 226 240 232 211 240 c 0
180 247 150 253 121 266 c 0
107 272 93 280 82 290 c 0
71 301 62 315 60 331 c 0
57 343 60 356 65 368 c 0
70 380 79 390 89 398 c 0
109 414 135 420 161 423 c 0
200 426 240 418 276 400 c 0
312 382 342 355 364 322 c 0
Z
Spiro
364 322 v
359 322 v
162 420 c
64 332 c
212 243 a
312 218 h
364 152 c
262 60 c
60 162 v
64 162 v
261 63 c
359 151 c
211 240 a
111 265 h
60 331 c
161 423 c
0 0 z
EndSpiro
EndSplineSet
        Fore
        SplineSet
422 440 m 0
422 320 l 0
339 342 253 355 168 360 c 0
158 360 148 360 140 357 c 0
135 356 131 353 128 350 c 0
124 347 122 342 122 338 c 0
121 333 122 327 125 323 c 0
128 319 131 315 136 313 c 0
145 308 155 306 165 306 c 0
175 305 185 305 195 303 c 0
205 302 215 300 225 298 c 0
266 287 308 277 346 256 c 0
364 245 382 232 395 215 c 0
409 199 419 179 422 158 c 0
424 137 421 117 413 98 c 0
405 79 392 63 377 49 c 0
347 22 307 8 268 0 c 0
177 -18 79 -4 -2 40 c 0
-2 160 l 0
80 137 165 123 251 119 c 0
260 118 270 118 278 121 c 0
283 122 287 125 290 128 c 0
294 131 296 136 297 141 c 0
297 145 296 151 293 155 c 0
290 159 287 163 282 165 c 0
273 170 263 172 253 172 c 0
243 173 233 173 223 175 c 0
213 176 203 178 194 181 c 0
152 191 110 201 73 222 c 0
54 233 37 246 24 263 c 0
10 279 0 299 -2 321 c 0
-4 341 -1 361 6 380 c 0
14 398 27 415 42 428 c 0
72 455 111 470 151 479 c 0
242 498 339 483 422 440 c 0
Z
Spiro
422 440 v
422 320 v
168 360 c
122 338 c
225 298 a
325 273 h
422 158 c
268 0 c
-2 40 v
-2 160 v
251 119 c
297 141 c
194 181 a
94 206 h
-2 321 c
151 479 c
0 0 z
EndSpiro
EndSplineSet
        EndChar
StartChar: t
Encoding: 116 116 0
Width: 376
InSpiro: 1
        Flags: H
        LayerCount: 2
        Back
        SplineSet
60 664 m 0
64 664 l 0
64 262 l 0
64 238 64 214 68 191 c 0
72 167 80 145 93 125 c 0
106 105 124 88 145 78 c 0
166 67 190 62 214 64 c 0
214 60 l 0
189 58 165 63 143 74 c 0
121 84 103 101 90 122 c 0
76 142 68 165 64 189 c 0
60 213 59 237 60 262 c 0
60 664 l 0
Z
60 460 m 0
60 464 l 0
214 464 l 0
214 460 l 0
60 460 l 0
Z
Spiro
60 664 v
64 664 v
64 262 ]
214 64 v
214 60 v
60 262 [
60 460 v
60 464 v
214 464 v
214 460 v
0 0 z
EndSpiro
EndSplineSet
        Fore
        SplineSet
-2 720 m 0
122 720 l 0
123 260 l 0
123 238 123 217 127 196 c 0
132 176 141 156 156 140 c 0
170 124 189 113 210 109 c 0
231 106 253 109 272 120 c 0
272 0 l 0
237 -19 196 -25 158 -18 c 0
119 -11 83 9 57 38 c 0
30 67 14 104 5 142 c 0
-2 181 -3 220 -3 260 c 0
-2 720 l 0
Z
-2 400 m 0
-2 520 l 0
272 520 l 0
272 400 l 0
-2 400 l 0
Z
Spiro
-2 720 v
122 720 v
123 260 ]
272 120 v
272 0 v
-3 260 [
-2 400 v
-2 520 v
272 520 v
272 400 v
0 0 z
EndSpiro
EndSplineSet
        EndChar
StartChar: u
Encoding: 117 117 0
Width: 466
InSpiro: 1
        Flags: H
        LayerCount: 2
        Back
        SplineSet
304 60 m 0
299 60 l 0
299 464 l 0
304 464 l 0
304 60 l 0
Z
299 164 m 0
304 164 l 0
303 138 293 114 276 95 c 0
259 76 236 64 212 60 c 0
187 56 162 60 141 71 c 0
119 82 101 100 88 120 c 0
75 141 67 165 64 189 c 0
60 213 59 237 60 262 c 0
60 464 l 0
64 464 l 0
64 262 l 0
64 238 64 214 67 190 c 0
71 167 78 144 91 123 c 0
103 103 120 86 141 74 c 0
162 63 187 59 211 63 c 0
234 66 257 79 273 97 c 0
289 115 298 139 299 164 c 0
Z
Spiro
304 60 v
299 60 v
299 464 v
304 464 v
299 164 v
304 164 v
212 60 c
60 262 [
60 464 v
64 464 v
64 262 ]
211 63 c
0 0 z
EndSpiro
EndSplineSet
        Fore
        SplineSet
362 0 m 0
237 0 l 0
237 520 l 0
362 520 l 0
362 0 l 0
Z
237 220 m 0
362 220 l 0
373 172 364 120 337 79 c 0
311 38 267 9 220 0 c 0
187 -6 152 -3 121 8 c 0
90 20 62 41 42 68 c 0
22 95 9 127 3 160 c 0
-2 192 -3 226 -3 260 c 0
-2 520 l 0
122 520 l 0
123 260 l 0
123 230 123 199 134 172 c 0
139 158 147 145 158 135 c 0
169 126 184 119 199 119 c 0
210 118 222 121 232 128 c 0
242 134 250 144 254 155 c 0
258 166 259 179 256 190 c 0
253 202 246 212 237 220 c 0
Z
Spiro
362 0 v
237 0 v
237 520 v
362 520 v
237 220 v
362 220 v
220 0 c
-3 260 [
-2 520 v
122 520 v
123 260 ]
199 119 c
0 0 z
EndSpiro
EndSplineSet
        EndChar
StartChar: v
Encoding: 118 118 0
Width: 526
InSpiro: 1
        Flags: H
        LayerCount: 2
        Back
        SplineSet
60 464 m 0
64 464 l 0
212 67 l 0
359 464 l 0
364 464 l 0
214 60 l 0
209 60 l 0
60 464 l 0
Z
Spiro
60 464 v
64 464 v
212 67 v
359 464 v
364 464 v
214 60 v
209 60 v
0 0 z
EndSpiro
EndSplineSet
        Fore
        SplineSet
-2 520 m 0
122 520 l 0
210 230 l 0
297 520 l 0
422 520 l 0
272 0 l 0
147 0 l 0
-2 520 l 0
Z
Spiro
-2 520 v
122 520 v
210 230 v
297 520 v
422 520 v
272 0 v
147 0 v
0 0 z
EndSpiro
EndSplineSet
        EndChar
StartChar: w
Encoding: 119 119 0
Width: 706
InSpiro: 1
        Flags: H
        LayerCount: 2
        Back
        SplineSet
60 464 m 0
64 464 l 0
182 68 l 0
299 464 l 0
304 464 l 0
422 68 l 0
539 464 l 0
544 464 l 0
424 60 l 0
419 60 l 0
302 455 l 0
184 60 l 0
179 60 l 0
60 464 l 0
Z
Spiro
60 464 v
64 464 v
182 68 v
299 464 v
304 464 v
422 68 v
539 464 v
544 464 v
424 60 v
419 60 v
302 455 v
184 60 v
179 60 v
0 0 z
EndSpiro
EndSplineSet
        Fore
        SplineSet
-2 520 m 0
122 520 l 0
180 268 l 0
237 520 l 0
362 520 l 0
420 268 l 0
477 520 l 0
602 520 l 0
482 0 l 0
357 0 l 0
300 251 l 0
242 0 l 0
117 0 l 0
-2 520 l 0
Z
Spiro
-2 520 v
122 520 v
180 268 v
237 520 v
362 520 v
420 268 v
477 520 v
602 520 v
482 0 v
357 0 v
300 251 v
242 0 v
117 0 v
0 0 z
EndSpiro
EndSplineSet
        EndChar
StartChar: x
Encoding: 120 120 0
Width: 526
InSpiro: 1
        Flags: H
        LayerCount: 2
        Back
        SplineSet
60 464 m 0
64 464 l 0
364 60 l 0
359 60 l 0
60 464 l 0
Z
359 464 m 0
364 464 l 0
64 60 l 0
60 60 l 0
359 464 l 0
Z
Spiro
60 464 v
64 464 v
364 60 v
359 60 v
359 464 v
364 464 v
64 60 v
60 60 v
0 0 z
EndSpiro
EndSplineSet
        Fore
        SplineSet
-2 520 m 0
122 520 l 0
422 0 l 0
297 0 l 0
-2 520 l 0
Z
297 520 m 0
422 520 l 0
122 0 l 0
-2 0 l 0
297 520 l 0
Z
Spiro
-2 520 v
122 520 v
422 0 v
297 0 v
297 520 v
422 520 v
122 0 v
-2 0 v
0 0 z
EndSpiro
EndSplineSet
        EndChar
StartChar: y
Encoding: 121 121 0
Width: 526
InSpiro: 1
        Flags: H
        LayerCount: 2
        Back
        SplineSet
359 464 m 0
364 464 l 0
364 62 l 0
364 0 363 -62 341 -120 c 0
330 -148 314 -175 292 -197 c 0
270 -218 242 -234 212 -239 c 0
178 -244 143 -236 115 -217 c 0
87 -198 67 -168 60 -136 c 0
64 -136 l 0
70 -167 90 -196 117 -215 c 0
144 -233 178 -241 211 -236 c 0
240 -231 268 -215 290 -194 c 0
311 -173 327 -146 337 -118 c 0
358 -61 358 0 359 61 c 0
359 464 l 0
Z
60 464 m 0
64 464 l 0
64 262 l 0
63 238 64 215 68 192 c 0
72 169 80 146 93 127 c 0
106 107 124 91 144 80 c 0
165 69 188 63 212 64 c 0
235 64 258 69 278 80 c 0
299 92 316 108 329 127 c 0
342 147 350 169 354 192 c 0
358 215 359 238 359 262 c 0
359 464 l 0
364 464 l 0
364 262 l 0
364 238 363 214 359 190 c 0
355 167 346 144 333 124 c 0
320 104 302 88 280 76 c 0
259 65 235 59 212 60 c 0
188 60 164 65 143 76 c 0
121 88 103 104 90 124 c 0
77 144 68 167 64 190 c 0
60 214 59 238 60 262 c 0
60 464 l 0
Z
Spiro
359 464 v
364 464 v
364 62 ]
212 -239 c
60 -136 v
64 -136 v
211 -236 c
359 61 [
60 464 v
64 464 v
64 262 ]
212 64 c
359 262 [
359 464 v
364 464 v
364 262 ]
212 60 c
60 262 [
0 0 z
EndSpiro
EndSplineSet
        Fore
        SplineSet
297 520 m 0
422 520 l 0
423 60 l 0
423 -15 420 -93 389 -162 c 0
373 -196 350 -227 321 -252 c 0
292 -276 257 -293 220 -299 c 0
160 -308 96 -287 53 -245 c 0
10 -202 -10 -139 -2 -80 c 0
122 -80 l 0
117 -91 116 -104 118 -117 c 0
119 -129 124 -141 132 -151 c 0
140 -161 150 -169 162 -174 c 0
173 -179 186 -181 199 -180 c 0
222 -177 243 -163 258 -145 c 0
273 -127 282 -104 288 -81 c 0
298 -36 296 11 297 59 c 0
297 520 l 0
Z
-2 520 m 0
122 520 l 0
123 260 l 0
123 229 124 197 137 169 c 0
144 155 154 143 166 134 c 0
179 125 194 120 210 120 c 0
225 119 240 125 253 134 c 0
265 143 275 155 282 169 c 0
296 197 296 229 297 260 c 0
297 520 l 0
422 520 l 0
423 260 l 0
423 228 422 195 416 164 c 0
409 133 397 103 377 77 c 0
358 52 332 32 303 19 c 0
274 5 241 0 210 0 c 0
178 0 145 5 116 19 c 0
87 32 61 52 42 77 c 0
22 103 10 133 3 164 c 0
-2 195 -3 228 -3 260 c 0
-2 520 l 0
Z
Spiro
297 520 v
422 520 v
423 60 ]
220 -299 c
-2 -80 v
122 -80 v
199 -180 c
297 59 [
-2 520 v
122 520 v
123 260 ]
210 120 c
297 260 [
297 520 v
422 520 v
423 260 ]
210 0 c
-3 260 [
0 0 z
EndSpiro
EndSplineSet
        EndChar
StartChar: z
Encoding: 122 122 0
Width: 526
InSpiro: 1
        Flags: H
        LayerCount: 2
        Back
        SplineSet
60 460 m 0
60 464 l 0
364 464 l 0
364 464 l 0
66 64 l 0
364 64 l 0
364 60 l 0
60 60 l 0
60 60 l 0
357 460 l 0
60 460 l 0
Z
Spiro
60 460 v
60 464 v
364 464 v
364 464 v
66 64 v
364 64 v
364 60 v
60 60 v
60 60 v
357 460 v
0 0 z
EndSpiro
EndSplineSet
        Fore
        SplineSet
-2 400 m 0
-2 520 l 0
422 520 l 0
422 520 l 0
182 120 l 0
422 120 l 0
422 0 l 0
-2 0 l 0
-2 0 l 0
237 400 l 0
-2 400 l 0
Z
Spiro
-2 400 v
-2 520 v
422 520 v
422 520 v
182 120 v
422 120 v
422 0 v
-2 0 v
-2 0 v
237 400 v
0 0 z
EndSpiro
EndSplineSet
        EndChar
StartChar: £
Encoding: 163 163 0
Width: 526
InSpiro: 1
        Flags: H
        LayerCount: 2
        Back
        SplineSet
364 560 m 0
359 560 l 0
361 578 358 596 351 613 c 0
343 629 331 644 316 654 c 0
301 664 283 670 265 671 c 0
247 672 228 668 213 660 c 0
189 647 171 625 160 600 c 0
149 576 143 549 141 522 c 0
136 469 139 415 139 362 c 0
139 60 l 0
134 60 l 0
134 362 l 0
134 416 131 470 137 524 c 0
139 551 145 578 157 602 c 0
168 627 186 649 210 663 c 0
226 672 245 676 264 676 c 0
283 675 302 669 318 658 c 0
334 648 347 633 355 615 c 0
363 598 366 578 364 560 c 0
Z
60 60 m 0
60 64 l 0
364 64 l 0
364 60 l 0
60 60 l 0
Z
60 360 m 0
60 364 l 0
214 364 l 0
214 360 l 0
60 360 l 0
Z
Spiro
364 560 v
359 560 v
213 660 c
139 362 [
139 60 v
134 60 v
134 362 ]
210 663 c
60 60 v
60 64 v
364 64 v
364 60 v
60 360 v
60 364 v
214 364 v
214 360 v
0 0 z
EndSpiro
EndSplineSet
        Fore
        SplineSet
422 500 m 0
297 500 l 0
309 508 319 521 323 535 c 0
327 550 325 566 318 580 c 0
311 593 299 604 284 609 c 0
270 614 253 613 240 607 c 0
229 602 221 595 214 586 c 0
207 577 202 567 199 557 c 0
192 536 191 514 192 492 c 0
193 448 198 404 198 360 c 0
197 0 l 0
72 0 l 0
72 360 l 0
72 423 71 488 83 551 c 0
89 582 99 613 115 641 c 0
130 669 152 694 179 712 c 0
209 731 246 741 282 739 c 0
318 736 353 722 380 698 c 0
408 674 427 641 434 606 c 0
442 570 437 532 422 500 c 0
Z
-2 0 m 0
-2 120 l 0
422 120 l 0
422 0 l 0
-2 0 l 0
Z
-2 300 m 0
-2 420 l 0
272 420 l 0
272 300 l 0
-2 300 l 0
Z
Spiro
422 500 v
297 500 v
240 607 c
198 360 [
197 0 v
72 0 v
72 360 ]
179 712 c
-2 0 v
-2 120 v
422 120 v
422 0 v
-2 300 v
-2 420 v
272 420 v
272 300 v
0 0 z
EndSpiro
EndSplineSet
        EndChar
StartChar: "+AKMA"
Encoding: 163 163 42
Width: 526
InSpiro: 1
Flags: H
LayerCount: 2
Back
SplineSet
364 560 m 0
 359 560 l 0
 359 582 l 0
 357 599 354 618 347 634 c 0
 340 651 328 665 312 674 c 0
 297 683 278 686 260 683 c 0
 242 680 226 672 213 660 c 0
 191 644 175 622 164 598 c 0
 153 573 147 547 143 521 c 0
 137 468 139 415 139 362 c 0
 139 60 l 0
 134 60 l 0
 134 362 l 0
 134 415 132 469 139 522 c 0
 143 549 150 575 161 599 c 0
 172 624 188 646 210 663 c 0
 226 675 245 683 265 685 c 0
 285 687 306 682 322 670 c 0
 339 658 351 641 357 621 c 0
 363 602 364 582 364 562 c 1024
  Spiro
    364 560 v
    359 560 v
    359 582 h
    213 660 c
    139 362 [
    139 60 v
    134 60 v
    134 362 ]
    210 663 c
    364 562 a
    364 542 h
    0 0 z
  EndSpiro
60 60 m 0
 60 64 l 0
 364 64 l 0
 364 60 l 0
 60 60 l 0
  Spiro
    60 60 v
    60 64 v
    364 64 v
    364 60 v
    0 0 z
  EndSpiro
60 360 m 0
 60 364 l 0
 214 364 l 0
 214 360 l 0
 60 360 l 0
  Spiro
    60 360 v
    60 364 v
    214 364 v
    214 360 v
    0 0 z
  EndSpiro
EndSplineSet
Fore
SplineSet
422 500 m 0
 297 500 l 0
 297 580 l 0
 291 588 285 598 276 604 c 0
 272 608 267 610 262 612 c 0
 257 613 251 613 247 611 c 0
 235 612 222 609 212 602 c 0
 202 595 195 585 190 574 c 0
 181 552 181 527 184 503 c 0
 187 479 192 456 194 432 c 0
 197 408 198 384 198 360 c 0
 197 0 l 0
 72 0 l 0
 72 360 l 0
 71 422 72 485 85 546 c 0
 98 606 125 666 172 708 c 0
 196 729 226 746 258 751 c 0
 291 756 325 750 353 733 c 0
 381 716 401 688 411 657 c 0
 422 626 423 592 423 560 c 1024
  Spiro
    422 500 v
    297 500 v
    297 580 h
    247 611 c
    198 360 [
    197 0 v
    72 0 v
    72 360 ]
    172 708 c
    423 560 a
    423 540 h
    0 0 z
  EndSpiro
-2 0 m 0
 -2 120 l 0
 422 120 l 0
 422 0 l 0
 -2 0 l 0
  Spiro
    -2 0 v
    -2 120 v
    422 120 v
    422 0 v
    0 0 z
  EndSpiro
-2 300 m 0
 -2 420 l 0
 272 420 l 0
 272 300 l 0
 -2 300 l 0
  Spiro
    -2 300 v
    -2 420 v
    272 420 v
    272 300 v
    0 0 z
  EndSpiro
EndSplineSet
EndChar
